%TF.GenerationSoftware,KiCad,Pcbnew,8.0.1*%
%TF.CreationDate,2024-04-28T15:42:03+00:00*%
%TF.ProjectId,split_kb,73706c69-745f-46b6-922e-6b696361645f,rev?*%
%TF.SameCoordinates,Original*%
%TF.FileFunction,Drillmap*%
%TF.FilePolarity,Positive*%
%FSLAX45Y45*%
G04 Gerber Fmt 4.5, Leading zero omitted, Abs format (unit mm)*
G04 Created by KiCad (PCBNEW 8.0.1) date 2024-04-28 15:42:03*
%MOMM*%
%LPD*%
G01*
G04 APERTURE LIST*
%ADD10C,0.050000*%
%ADD11C,0.200000*%
%ADD12C,0.300000*%
%ADD13C,0.320000*%
%ADD14C,0.325000*%
%ADD15C,0.510000*%
G04 APERTURE END LIST*
D10*
X9975000Y-16720000D02*
X13205000Y-14820000D01*
X7315000Y-10165000D02*
G75*
G02*
X7790000Y-10640000I0J-475000D01*
G01*
X13205000Y-14820000D02*
G75*
G02*
X14345000Y-14535000I1140000J-2137500D01*
G01*
X13585000Y-3800000D02*
X23180000Y-3800000D01*
X7790000Y-10640000D02*
X7790000Y-13395000D01*
X18050000Y-14060000D02*
X23180000Y-14060000D01*
X7315000Y-10165000D02*
G75*
G02*
X6650000Y-9500000I0J665000D01*
G01*
X23750000Y-13490000D02*
G75*
G02*
X23180000Y-14060000I-570000J0D01*
G01*
X9405000Y-15390000D02*
X8075000Y-14060000D01*
X16910000Y-14345000D02*
G75*
G02*
X16150000Y-14535000I-760000J1425000D01*
G01*
X9975000Y-16720000D02*
G75*
G02*
X9405000Y-15770000I-285000J475000D01*
G01*
X12255000Y-3610000D02*
G75*
G02*
X13395000Y-3610000I570000J0D01*
G01*
X14345000Y-14535000D02*
X16150000Y-14535000D01*
X8075000Y-14060000D02*
G75*
G02*
X7790001Y-13395000I665000J678570D01*
G01*
X13585000Y-3800000D02*
G75*
G02*
X13395000Y-3610000I0J190000D01*
G01*
X12255000Y-3610000D02*
G75*
G02*
X12065000Y-3800000I-190000J0D01*
G01*
X6650000Y-3800000D02*
X12065000Y-3800000D01*
X16910000Y-14345000D02*
G75*
G02*
X18050000Y-14060000I1140000J-2137500D01*
G01*
X9405000Y-15390000D02*
G75*
G02*
X9405000Y-15770000I-190000J-190000D01*
G01*
X6650000Y-9500000D02*
X6650000Y-3800000D01*
X23180000Y-3800000D02*
G75*
G02*
X23750000Y-4370000I0J-570000D01*
G01*
X23750000Y-13490000D02*
X23750000Y-4370000D01*
D11*
D12*
X10022520Y-14333949D02*
X10322520Y-14633949D01*
X10322520Y-14333949D02*
X10022520Y-14633949D01*
X10281587Y-14992667D02*
X10581587Y-15292667D01*
X10581587Y-14992667D02*
X10281587Y-15292667D01*
X10335000Y-9830000D02*
X10635000Y-10130000D01*
X10635000Y-9830000D02*
X10335000Y-10130000D01*
X10335000Y-10770000D02*
X10635000Y-11070000D01*
X10635000Y-10770000D02*
X10335000Y-11070000D01*
X10836584Y-13863949D02*
X11136584Y-14163949D01*
X11136584Y-13863949D02*
X10836584Y-14163949D01*
X11035000Y-9725000D02*
X11335000Y-10025000D01*
X11335000Y-9725000D02*
X11035000Y-10025000D01*
X11035000Y-10875000D02*
X11335000Y-11175000D01*
X11335000Y-10875000D02*
X11035000Y-11175000D01*
X11277516Y-14417667D02*
X11577516Y-14717667D01*
X11577516Y-14417667D02*
X11277516Y-14717667D01*
X11667968Y-13383949D02*
X11967968Y-13683949D01*
X11967968Y-13383949D02*
X11667968Y-13683949D01*
X11927035Y-14042667D02*
X12227035Y-14342667D01*
X12227035Y-14042667D02*
X11927035Y-14342667D01*
X12235000Y-5080000D02*
X12535000Y-5380000D01*
X12535000Y-5080000D02*
X12235000Y-5380000D01*
X12235000Y-6020000D02*
X12535000Y-6320000D01*
X12535000Y-6020000D02*
X12235000Y-6320000D01*
X12235000Y-6980000D02*
X12535000Y-7280000D01*
X12535000Y-6980000D02*
X12235000Y-7280000D01*
X12235000Y-7920000D02*
X12535000Y-8220000D01*
X12535000Y-7920000D02*
X12235000Y-8220000D01*
X12235000Y-8880000D02*
X12535000Y-9180000D01*
X12535000Y-8880000D02*
X12235000Y-9180000D01*
X12235000Y-9820000D02*
X12535000Y-10120000D01*
X12535000Y-9820000D02*
X12235000Y-10120000D01*
X12235000Y-10780000D02*
X12535000Y-11080000D01*
X12535000Y-10780000D02*
X12235000Y-11080000D01*
X12235000Y-11720000D02*
X12535000Y-12020000D01*
X12535000Y-11720000D02*
X12235000Y-12020000D01*
X12482032Y-12913949D02*
X12782032Y-13213949D01*
X12782032Y-12913949D02*
X12482032Y-13213949D01*
X12922965Y-13467667D02*
X13222965Y-13767667D01*
X13222965Y-13467667D02*
X12922965Y-13767667D01*
X12935000Y-4975000D02*
X13235000Y-5275000D01*
X13235000Y-4975000D02*
X12935000Y-5275000D01*
X12935000Y-6125000D02*
X13235000Y-6425000D01*
X13235000Y-6125000D02*
X12935000Y-6425000D01*
X12935000Y-6875000D02*
X13235000Y-7175000D01*
X13235000Y-6875000D02*
X12935000Y-7175000D01*
X12935000Y-8025000D02*
X13235000Y-8325000D01*
X13235000Y-8025000D02*
X12935000Y-8325000D01*
X12935000Y-8775000D02*
X13235000Y-9075000D01*
X13235000Y-8775000D02*
X12935000Y-9075000D01*
X12935000Y-9925000D02*
X13235000Y-10225000D01*
X13235000Y-9925000D02*
X12935000Y-10225000D01*
X12935000Y-10675000D02*
X13235000Y-10975000D01*
X13235000Y-10675000D02*
X12935000Y-10975000D01*
X12935000Y-11825000D02*
X13235000Y-12125000D01*
X13235000Y-11825000D02*
X12935000Y-12125000D01*
X14000000Y-13030000D02*
X14300000Y-13330000D01*
X14300000Y-13030000D02*
X14000000Y-13330000D01*
X14105000Y-12330000D02*
X14405000Y-12630000D01*
X14405000Y-12330000D02*
X14105000Y-12630000D01*
X14135000Y-4700000D02*
X14435000Y-5000000D01*
X14435000Y-4700000D02*
X14135000Y-5000000D01*
X14135000Y-5640000D02*
X14435000Y-5940000D01*
X14435000Y-5640000D02*
X14135000Y-5940000D01*
X14135000Y-6600000D02*
X14435000Y-6900000D01*
X14435000Y-6600000D02*
X14135000Y-6900000D01*
X14135000Y-7540000D02*
X14435000Y-7840000D01*
X14435000Y-7540000D02*
X14135000Y-7840000D01*
X14135000Y-8500000D02*
X14435000Y-8800000D01*
X14435000Y-8500000D02*
X14135000Y-8800000D01*
X14135000Y-9440000D02*
X14435000Y-9740000D01*
X14435000Y-9440000D02*
X14135000Y-9740000D01*
X14135000Y-10400000D02*
X14435000Y-10700000D01*
X14435000Y-10400000D02*
X14135000Y-10700000D01*
X14135000Y-11340000D02*
X14435000Y-11640000D01*
X14435000Y-11340000D02*
X14135000Y-11640000D01*
X14835000Y-4595000D02*
X15135000Y-4895000D01*
X15135000Y-4595000D02*
X14835000Y-4895000D01*
X14835000Y-5745000D02*
X15135000Y-6045000D01*
X15135000Y-5745000D02*
X14835000Y-6045000D01*
X14835000Y-6495000D02*
X15135000Y-6795000D01*
X15135000Y-6495000D02*
X14835000Y-6795000D01*
X14835000Y-7645000D02*
X15135000Y-7945000D01*
X15135000Y-7645000D02*
X14835000Y-7945000D01*
X14835000Y-8395000D02*
X15135000Y-8695000D01*
X15135000Y-8395000D02*
X14835000Y-8695000D01*
X14835000Y-9545000D02*
X15135000Y-9845000D01*
X15135000Y-9545000D02*
X14835000Y-9845000D01*
X14835000Y-10295000D02*
X15135000Y-10595000D01*
X15135000Y-10295000D02*
X14835000Y-10595000D01*
X14835000Y-11445000D02*
X15135000Y-11745000D01*
X15135000Y-11445000D02*
X14835000Y-11745000D01*
X15045000Y-12330000D02*
X15345000Y-12630000D01*
X15345000Y-12330000D02*
X15045000Y-12630000D01*
X15150000Y-13030000D02*
X15450000Y-13330000D01*
X15450000Y-13030000D02*
X15150000Y-13330000D01*
X16035000Y-4320000D02*
X16335000Y-4620000D01*
X16335000Y-4320000D02*
X16035000Y-4620000D01*
X16035000Y-5260000D02*
X16335000Y-5560000D01*
X16335000Y-5260000D02*
X16035000Y-5560000D01*
X16035000Y-6220000D02*
X16335000Y-6520000D01*
X16335000Y-6220000D02*
X16035000Y-6520000D01*
X16035000Y-7160000D02*
X16335000Y-7460000D01*
X16335000Y-7160000D02*
X16035000Y-7460000D01*
X16035000Y-8120000D02*
X16335000Y-8420000D01*
X16335000Y-8120000D02*
X16035000Y-8420000D01*
X16035000Y-9060000D02*
X16335000Y-9360000D01*
X16335000Y-9060000D02*
X16035000Y-9360000D01*
X16035000Y-10020000D02*
X16335000Y-10320000D01*
X16335000Y-10020000D02*
X16035000Y-10320000D01*
X16035000Y-10960000D02*
X16335000Y-11260000D01*
X16335000Y-10960000D02*
X16035000Y-11260000D01*
X16735000Y-4215000D02*
X17035000Y-4515000D01*
X17035000Y-4215000D02*
X16735000Y-4515000D01*
X16735000Y-5365000D02*
X17035000Y-5665000D01*
X17035000Y-5365000D02*
X16735000Y-5665000D01*
X16735000Y-6115000D02*
X17035000Y-6415000D01*
X17035000Y-6115000D02*
X16735000Y-6415000D01*
X16735000Y-7265000D02*
X17035000Y-7565000D01*
X17035000Y-7265000D02*
X16735000Y-7565000D01*
X16735000Y-8015000D02*
X17035000Y-8315000D01*
X17035000Y-8015000D02*
X16735000Y-8315000D01*
X16735000Y-9165000D02*
X17035000Y-9465000D01*
X17035000Y-9165000D02*
X16735000Y-9465000D01*
X16735000Y-9915000D02*
X17035000Y-10215000D01*
X17035000Y-9915000D02*
X16735000Y-10215000D01*
X16735000Y-11065000D02*
X17035000Y-11365000D01*
X17035000Y-11065000D02*
X16735000Y-11365000D01*
X17935000Y-4510000D02*
X18235000Y-4810000D01*
X18235000Y-4510000D02*
X17935000Y-4810000D01*
X17935000Y-5450000D02*
X18235000Y-5750000D01*
X18235000Y-5450000D02*
X17935000Y-5750000D01*
X17935000Y-6410000D02*
X18235000Y-6710000D01*
X18235000Y-6410000D02*
X17935000Y-6710000D01*
X17935000Y-7350000D02*
X18235000Y-7650000D01*
X18235000Y-7350000D02*
X17935000Y-7650000D01*
X17935000Y-8310000D02*
X18235000Y-8610000D01*
X18235000Y-8310000D02*
X17935000Y-8610000D01*
X17935000Y-9250000D02*
X18235000Y-9550000D01*
X18235000Y-9250000D02*
X17935000Y-9550000D01*
X17935000Y-10210000D02*
X18235000Y-10510000D01*
X18235000Y-10210000D02*
X17935000Y-10510000D01*
X17935000Y-11150000D02*
X18235000Y-11450000D01*
X18235000Y-11150000D02*
X17935000Y-11450000D01*
X18635000Y-4405000D02*
X18935000Y-4705000D01*
X18935000Y-4405000D02*
X18635000Y-4705000D01*
X18635000Y-5555000D02*
X18935000Y-5855000D01*
X18935000Y-5555000D02*
X18635000Y-5855000D01*
X18635000Y-6305000D02*
X18935000Y-6605000D01*
X18935000Y-6305000D02*
X18635000Y-6605000D01*
X18635000Y-7455000D02*
X18935000Y-7755000D01*
X18935000Y-7455000D02*
X18635000Y-7755000D01*
X18635000Y-8205000D02*
X18935000Y-8505000D01*
X18935000Y-8205000D02*
X18635000Y-8505000D01*
X18635000Y-9355000D02*
X18935000Y-9655000D01*
X18935000Y-9355000D02*
X18635000Y-9655000D01*
X18635000Y-10105000D02*
X18935000Y-10405000D01*
X18935000Y-10105000D02*
X18635000Y-10405000D01*
X18635000Y-11255000D02*
X18935000Y-11555000D01*
X18935000Y-11255000D02*
X18635000Y-11555000D01*
X19835000Y-5080000D02*
X20135000Y-5380000D01*
X20135000Y-5080000D02*
X19835000Y-5380000D01*
X19835000Y-6020000D02*
X20135000Y-6320000D01*
X20135000Y-6020000D02*
X19835000Y-6320000D01*
X19835000Y-6980000D02*
X20135000Y-7280000D01*
X20135000Y-6980000D02*
X19835000Y-7280000D01*
X19835000Y-7920000D02*
X20135000Y-8220000D01*
X20135000Y-7920000D02*
X19835000Y-8220000D01*
X19835000Y-8880000D02*
X20135000Y-9180000D01*
X20135000Y-8880000D02*
X19835000Y-9180000D01*
X19835000Y-9820000D02*
X20135000Y-10120000D01*
X20135000Y-9820000D02*
X19835000Y-10120000D01*
X19835000Y-10780000D02*
X20135000Y-11080000D01*
X20135000Y-10780000D02*
X19835000Y-11080000D01*
X19835000Y-11720000D02*
X20135000Y-12020000D01*
X20135000Y-11720000D02*
X19835000Y-12020000D01*
X20535000Y-4975000D02*
X20835000Y-5275000D01*
X20835000Y-4975000D02*
X20535000Y-5275000D01*
X20535000Y-6125000D02*
X20835000Y-6425000D01*
X20835000Y-6125000D02*
X20535000Y-6425000D01*
X20535000Y-6875000D02*
X20835000Y-7175000D01*
X20835000Y-6875000D02*
X20535000Y-7175000D01*
X20535000Y-8025000D02*
X20835000Y-8325000D01*
X20835000Y-8025000D02*
X20535000Y-8325000D01*
X20535000Y-8775000D02*
X20835000Y-9075000D01*
X20835000Y-8775000D02*
X20535000Y-9075000D01*
X20535000Y-9925000D02*
X20835000Y-10225000D01*
X20835000Y-9925000D02*
X20535000Y-10225000D01*
X20535000Y-10675000D02*
X20835000Y-10975000D01*
X20835000Y-10675000D02*
X20535000Y-10975000D01*
X20535000Y-11825000D02*
X20835000Y-12125000D01*
X20835000Y-11825000D02*
X20535000Y-12125000D01*
X21735000Y-5080000D02*
X22035000Y-5380000D01*
X22035000Y-5080000D02*
X21735000Y-5380000D01*
X21735000Y-6020000D02*
X22035000Y-6320000D01*
X22035000Y-6020000D02*
X21735000Y-6320000D01*
X21735000Y-6980000D02*
X22035000Y-7280000D01*
X22035000Y-6980000D02*
X21735000Y-7280000D01*
X21735000Y-7920000D02*
X22035000Y-8220000D01*
X22035000Y-7920000D02*
X21735000Y-8220000D01*
X21735000Y-8880000D02*
X22035000Y-9180000D01*
X22035000Y-8880000D02*
X21735000Y-9180000D01*
X21735000Y-9820000D02*
X22035000Y-10120000D01*
X22035000Y-9820000D02*
X21735000Y-10120000D01*
X21735000Y-10780000D02*
X22035000Y-11080000D01*
X22035000Y-10780000D02*
X21735000Y-11080000D01*
X21735000Y-11720000D02*
X22035000Y-12020000D01*
X22035000Y-11720000D02*
X21735000Y-12020000D01*
X22435000Y-4975000D02*
X22735000Y-5275000D01*
X22735000Y-4975000D02*
X22435000Y-5275000D01*
X22435000Y-6125000D02*
X22735000Y-6425000D01*
X22735000Y-6125000D02*
X22435000Y-6425000D01*
X22435000Y-6875000D02*
X22735000Y-7175000D01*
X22735000Y-6875000D02*
X22435000Y-7175000D01*
X22435000Y-8025000D02*
X22735000Y-8325000D01*
X22735000Y-8025000D02*
X22435000Y-8325000D01*
X22435000Y-8775000D02*
X22735000Y-9075000D01*
X22735000Y-8775000D02*
X22435000Y-9075000D01*
X22435000Y-9925000D02*
X22735000Y-10225000D01*
X22735000Y-9925000D02*
X22435000Y-10225000D01*
X22435000Y-10675000D02*
X22735000Y-10975000D01*
X22735000Y-10675000D02*
X22435000Y-10975000D01*
X22435000Y-11825000D02*
X22735000Y-12125000D01*
X22735000Y-11825000D02*
X22435000Y-12125000D01*
D13*
X7115000Y-4750000D02*
G75*
G02*
X6795000Y-4750000I-160000J0D01*
G01*
X6795000Y-4750000D02*
G75*
G02*
X7115000Y-4750000I160000J0D01*
G01*
X8615000Y-4750000D02*
G75*
G02*
X8295000Y-4750000I-160000J0D01*
G01*
X8295000Y-4750000D02*
G75*
G02*
X8615000Y-4750000I160000J0D01*
G01*
D14*
X7705000Y-4587500D02*
X7705000Y-4912500D01*
X7542500Y-4750000D02*
X7867500Y-4750000D01*
X7705000Y-4587500D02*
X7705000Y-4912500D01*
X7542500Y-4750000D02*
X7867500Y-4750000D01*
D15*
X10979866Y-14810314D02*
X10979866Y-14449686D01*
X10619238Y-14449686D01*
X10619238Y-14810314D01*
X10979866Y-14810314D01*
X10979866Y-14810314D02*
X10979866Y-14449686D01*
X10619238Y-14449686D01*
X10619238Y-14810314D01*
X10979866Y-14810314D01*
X11105314Y-10630314D02*
X11105314Y-10269686D01*
X10744686Y-10269686D01*
X10744686Y-10630314D01*
X11105314Y-10630314D01*
X11105314Y-10630314D02*
X11105314Y-10269686D01*
X10744686Y-10269686D01*
X10744686Y-10630314D01*
X11105314Y-10630314D01*
X12625314Y-13860314D02*
X12625314Y-13499686D01*
X12264686Y-13499686D01*
X12264686Y-13860314D01*
X12625314Y-13860314D01*
X12625314Y-13860314D02*
X12625314Y-13499686D01*
X12264686Y-13499686D01*
X12264686Y-13860314D01*
X12625314Y-13860314D01*
X13005314Y-5880314D02*
X13005314Y-5519686D01*
X12644686Y-5519686D01*
X12644686Y-5880314D01*
X13005314Y-5880314D01*
X13005314Y-5880314D02*
X13005314Y-5519686D01*
X12644686Y-5519686D01*
X12644686Y-5880314D01*
X13005314Y-5880314D01*
X13005314Y-7780314D02*
X13005314Y-7419686D01*
X12644686Y-7419686D01*
X12644686Y-7780314D01*
X13005314Y-7780314D01*
X13005314Y-7780314D02*
X13005314Y-7419686D01*
X12644686Y-7419686D01*
X12644686Y-7780314D01*
X13005314Y-7780314D01*
X13005314Y-9680314D02*
X13005314Y-9319686D01*
X12644686Y-9319686D01*
X12644686Y-9680314D01*
X13005314Y-9680314D01*
X13005314Y-9680314D02*
X13005314Y-9319686D01*
X12644686Y-9319686D01*
X12644686Y-9680314D01*
X13005314Y-9680314D01*
X13005314Y-11580314D02*
X13005314Y-11219686D01*
X12644686Y-11219686D01*
X12644686Y-11580314D01*
X13005314Y-11580314D01*
X13005314Y-11580314D02*
X13005314Y-11219686D01*
X12644686Y-11219686D01*
X12644686Y-11580314D01*
X13005314Y-11580314D01*
X14905314Y-5500314D02*
X14905314Y-5139686D01*
X14544686Y-5139686D01*
X14544686Y-5500314D01*
X14905314Y-5500314D01*
X14905314Y-5500314D02*
X14905314Y-5139686D01*
X14544686Y-5139686D01*
X14544686Y-5500314D01*
X14905314Y-5500314D01*
X14905314Y-7400314D02*
X14905314Y-7039686D01*
X14544686Y-7039686D01*
X14544686Y-7400314D01*
X14905314Y-7400314D01*
X14905314Y-7400314D02*
X14905314Y-7039686D01*
X14544686Y-7039686D01*
X14544686Y-7400314D01*
X14905314Y-7400314D01*
X14905314Y-9300314D02*
X14905314Y-8939686D01*
X14544686Y-8939686D01*
X14544686Y-9300314D01*
X14905314Y-9300314D01*
X14905314Y-9300314D02*
X14905314Y-8939686D01*
X14544686Y-8939686D01*
X14544686Y-9300314D01*
X14905314Y-9300314D01*
X14905314Y-11200314D02*
X14905314Y-10839686D01*
X14544686Y-10839686D01*
X14544686Y-11200314D01*
X14905314Y-11200314D01*
X14905314Y-11200314D02*
X14905314Y-10839686D01*
X14544686Y-10839686D01*
X14544686Y-11200314D01*
X14905314Y-11200314D01*
X14905314Y-13100314D02*
X14905314Y-12739686D01*
X14544686Y-12739686D01*
X14544686Y-13100314D01*
X14905314Y-13100314D01*
X14905314Y-13100314D02*
X14905314Y-12739686D01*
X14544686Y-12739686D01*
X14544686Y-13100314D01*
X14905314Y-13100314D01*
X16805314Y-5120314D02*
X16805314Y-4759686D01*
X16444686Y-4759686D01*
X16444686Y-5120314D01*
X16805314Y-5120314D01*
X16805314Y-5120314D02*
X16805314Y-4759686D01*
X16444686Y-4759686D01*
X16444686Y-5120314D01*
X16805314Y-5120314D01*
X16805314Y-7020314D02*
X16805314Y-6659686D01*
X16444686Y-6659686D01*
X16444686Y-7020314D01*
X16805314Y-7020314D01*
X16805314Y-7020314D02*
X16805314Y-6659686D01*
X16444686Y-6659686D01*
X16444686Y-7020314D01*
X16805314Y-7020314D01*
X16805314Y-8920314D02*
X16805314Y-8559686D01*
X16444686Y-8559686D01*
X16444686Y-8920314D01*
X16805314Y-8920314D01*
X16805314Y-8920314D02*
X16805314Y-8559686D01*
X16444686Y-8559686D01*
X16444686Y-8920314D01*
X16805314Y-8920314D01*
X16805314Y-10820314D02*
X16805314Y-10459686D01*
X16444686Y-10459686D01*
X16444686Y-10820314D01*
X16805314Y-10820314D01*
X16805314Y-10820314D02*
X16805314Y-10459686D01*
X16444686Y-10459686D01*
X16444686Y-10820314D01*
X16805314Y-10820314D01*
X18705314Y-5310314D02*
X18705314Y-4949686D01*
X18344686Y-4949686D01*
X18344686Y-5310314D01*
X18705314Y-5310314D01*
X18705314Y-5310314D02*
X18705314Y-4949686D01*
X18344686Y-4949686D01*
X18344686Y-5310314D01*
X18705314Y-5310314D01*
X18705314Y-7210314D02*
X18705314Y-6849686D01*
X18344686Y-6849686D01*
X18344686Y-7210314D01*
X18705314Y-7210314D01*
X18705314Y-7210314D02*
X18705314Y-6849686D01*
X18344686Y-6849686D01*
X18344686Y-7210314D01*
X18705314Y-7210314D01*
X18705314Y-9110314D02*
X18705314Y-8749686D01*
X18344686Y-8749686D01*
X18344686Y-9110314D01*
X18705314Y-9110314D01*
X18705314Y-9110314D02*
X18705314Y-8749686D01*
X18344686Y-8749686D01*
X18344686Y-9110314D01*
X18705314Y-9110314D01*
X18705314Y-11010314D02*
X18705314Y-10649686D01*
X18344686Y-10649686D01*
X18344686Y-11010314D01*
X18705314Y-11010314D01*
X18705314Y-11010314D02*
X18705314Y-10649686D01*
X18344686Y-10649686D01*
X18344686Y-11010314D01*
X18705314Y-11010314D01*
X20605314Y-5880314D02*
X20605314Y-5519686D01*
X20244686Y-5519686D01*
X20244686Y-5880314D01*
X20605314Y-5880314D01*
X20605314Y-5880314D02*
X20605314Y-5519686D01*
X20244686Y-5519686D01*
X20244686Y-5880314D01*
X20605314Y-5880314D01*
X20605314Y-7780314D02*
X20605314Y-7419686D01*
X20244686Y-7419686D01*
X20244686Y-7780314D01*
X20605314Y-7780314D01*
X20605314Y-7780314D02*
X20605314Y-7419686D01*
X20244686Y-7419686D01*
X20244686Y-7780314D01*
X20605314Y-7780314D01*
X20605314Y-9680314D02*
X20605314Y-9319686D01*
X20244686Y-9319686D01*
X20244686Y-9680314D01*
X20605314Y-9680314D01*
X20605314Y-9680314D02*
X20605314Y-9319686D01*
X20244686Y-9319686D01*
X20244686Y-9680314D01*
X20605314Y-9680314D01*
X20605314Y-11580314D02*
X20605314Y-11219686D01*
X20244686Y-11219686D01*
X20244686Y-11580314D01*
X20605314Y-11580314D01*
X20605314Y-11580314D02*
X20605314Y-11219686D01*
X20244686Y-11219686D01*
X20244686Y-11580314D01*
X20605314Y-11580314D01*
X22505314Y-5880314D02*
X22505314Y-5519686D01*
X22144686Y-5519686D01*
X22144686Y-5880314D01*
X22505314Y-5880314D01*
X22505314Y-5880314D02*
X22505314Y-5519686D01*
X22144686Y-5519686D01*
X22144686Y-5880314D01*
X22505314Y-5880314D01*
X22505314Y-7780314D02*
X22505314Y-7419686D01*
X22144686Y-7419686D01*
X22144686Y-7780314D01*
X22505314Y-7780314D01*
X22505314Y-7780314D02*
X22505314Y-7419686D01*
X22144686Y-7419686D01*
X22144686Y-7780314D01*
X22505314Y-7780314D01*
X22505314Y-9680314D02*
X22505314Y-9319686D01*
X22144686Y-9319686D01*
X22144686Y-9680314D01*
X22505314Y-9680314D01*
X22505314Y-9680314D02*
X22505314Y-9319686D01*
X22144686Y-9319686D01*
X22144686Y-9680314D01*
X22505314Y-9680314D01*
X22505314Y-11580314D02*
X22505314Y-11219686D01*
X22144686Y-11219686D01*
X22144686Y-11580314D01*
X22505314Y-11580314D01*
X22505314Y-11580314D02*
X22505314Y-11219686D01*
X22144686Y-11219686D01*
X22144686Y-11580314D01*
X22505314Y-11580314D01*
D11*
X6908277Y-17112924D02*
X6908277Y-16912924D01*
X6908277Y-16912924D02*
X6955896Y-16912924D01*
X6955896Y-16912924D02*
X6984467Y-16922448D01*
X6984467Y-16922448D02*
X7003515Y-16941496D01*
X7003515Y-16941496D02*
X7013039Y-16960543D01*
X7013039Y-16960543D02*
X7022562Y-16998638D01*
X7022562Y-16998638D02*
X7022562Y-17027210D01*
X7022562Y-17027210D02*
X7013039Y-17065305D01*
X7013039Y-17065305D02*
X7003515Y-17084353D01*
X7003515Y-17084353D02*
X6984467Y-17103400D01*
X6984467Y-17103400D02*
X6955896Y-17112924D01*
X6955896Y-17112924D02*
X6908277Y-17112924D01*
X7108277Y-17112924D02*
X7108277Y-16979591D01*
X7108277Y-17017686D02*
X7117801Y-16998638D01*
X7117801Y-16998638D02*
X7127324Y-16989115D01*
X7127324Y-16989115D02*
X7146372Y-16979591D01*
X7146372Y-16979591D02*
X7165420Y-16979591D01*
X7232086Y-17112924D02*
X7232086Y-16979591D01*
X7232086Y-16912924D02*
X7222562Y-16922448D01*
X7222562Y-16922448D02*
X7232086Y-16931972D01*
X7232086Y-16931972D02*
X7241610Y-16922448D01*
X7241610Y-16922448D02*
X7232086Y-16912924D01*
X7232086Y-16912924D02*
X7232086Y-16931972D01*
X7355896Y-17112924D02*
X7336848Y-17103400D01*
X7336848Y-17103400D02*
X7327324Y-17084353D01*
X7327324Y-17084353D02*
X7327324Y-16912924D01*
X7460658Y-17112924D02*
X7441610Y-17103400D01*
X7441610Y-17103400D02*
X7432086Y-17084353D01*
X7432086Y-17084353D02*
X7432086Y-16912924D01*
X7689229Y-17112924D02*
X7689229Y-16912924D01*
X7689229Y-16912924D02*
X7755896Y-17055781D01*
X7755896Y-17055781D02*
X7822562Y-16912924D01*
X7822562Y-16912924D02*
X7822562Y-17112924D01*
X8003515Y-17112924D02*
X8003515Y-17008162D01*
X8003515Y-17008162D02*
X7993991Y-16989115D01*
X7993991Y-16989115D02*
X7974943Y-16979591D01*
X7974943Y-16979591D02*
X7936848Y-16979591D01*
X7936848Y-16979591D02*
X7917801Y-16989115D01*
X8003515Y-17103400D02*
X7984467Y-17112924D01*
X7984467Y-17112924D02*
X7936848Y-17112924D01*
X7936848Y-17112924D02*
X7917801Y-17103400D01*
X7917801Y-17103400D02*
X7908277Y-17084353D01*
X7908277Y-17084353D02*
X7908277Y-17065305D01*
X7908277Y-17065305D02*
X7917801Y-17046258D01*
X7917801Y-17046258D02*
X7936848Y-17036734D01*
X7936848Y-17036734D02*
X7984467Y-17036734D01*
X7984467Y-17036734D02*
X8003515Y-17027210D01*
X8098753Y-16979591D02*
X8098753Y-17179591D01*
X8098753Y-16989115D02*
X8117801Y-16979591D01*
X8117801Y-16979591D02*
X8155896Y-16979591D01*
X8155896Y-16979591D02*
X8174943Y-16989115D01*
X8174943Y-16989115D02*
X8184467Y-16998638D01*
X8184467Y-16998638D02*
X8193991Y-17017686D01*
X8193991Y-17017686D02*
X8193991Y-17074829D01*
X8193991Y-17074829D02*
X8184467Y-17093877D01*
X8184467Y-17093877D02*
X8174943Y-17103400D01*
X8174943Y-17103400D02*
X8155896Y-17112924D01*
X8155896Y-17112924D02*
X8117801Y-17112924D01*
X8117801Y-17112924D02*
X8098753Y-17103400D01*
X8279705Y-17093877D02*
X8289229Y-17103400D01*
X8289229Y-17103400D02*
X8279705Y-17112924D01*
X8279705Y-17112924D02*
X8270182Y-17103400D01*
X8270182Y-17103400D02*
X8279705Y-17093877D01*
X8279705Y-17093877D02*
X8279705Y-17112924D01*
X8279705Y-16989115D02*
X8289229Y-16998638D01*
X8289229Y-16998638D02*
X8279705Y-17008162D01*
X8279705Y-17008162D02*
X8270182Y-16998638D01*
X8270182Y-16998638D02*
X8279705Y-16989115D01*
X8279705Y-16989115D02*
X8279705Y-17008162D01*
X6447500Y-17341440D02*
X6647500Y-17541440D01*
X6647500Y-17341440D02*
X6447500Y-17541440D01*
X6889229Y-17332924D02*
X7013039Y-17332924D01*
X7013039Y-17332924D02*
X6946372Y-17409115D01*
X6946372Y-17409115D02*
X6974943Y-17409115D01*
X6974943Y-17409115D02*
X6993991Y-17418638D01*
X6993991Y-17418638D02*
X7003515Y-17428162D01*
X7003515Y-17428162D02*
X7013039Y-17447210D01*
X7013039Y-17447210D02*
X7013039Y-17494829D01*
X7013039Y-17494829D02*
X7003515Y-17513877D01*
X7003515Y-17513877D02*
X6993991Y-17523400D01*
X6993991Y-17523400D02*
X6974943Y-17532924D01*
X6974943Y-17532924D02*
X6917801Y-17532924D01*
X6917801Y-17532924D02*
X6898753Y-17523400D01*
X6898753Y-17523400D02*
X6889229Y-17513877D01*
X7098753Y-17513877D02*
X7108277Y-17523400D01*
X7108277Y-17523400D02*
X7098753Y-17532924D01*
X7098753Y-17532924D02*
X7089229Y-17523400D01*
X7089229Y-17523400D02*
X7098753Y-17513877D01*
X7098753Y-17513877D02*
X7098753Y-17532924D01*
X7232086Y-17332924D02*
X7251134Y-17332924D01*
X7251134Y-17332924D02*
X7270182Y-17342448D01*
X7270182Y-17342448D02*
X7279705Y-17351972D01*
X7279705Y-17351972D02*
X7289229Y-17371019D01*
X7289229Y-17371019D02*
X7298753Y-17409115D01*
X7298753Y-17409115D02*
X7298753Y-17456734D01*
X7298753Y-17456734D02*
X7289229Y-17494829D01*
X7289229Y-17494829D02*
X7279705Y-17513877D01*
X7279705Y-17513877D02*
X7270182Y-17523400D01*
X7270182Y-17523400D02*
X7251134Y-17532924D01*
X7251134Y-17532924D02*
X7232086Y-17532924D01*
X7232086Y-17532924D02*
X7213039Y-17523400D01*
X7213039Y-17523400D02*
X7203515Y-17513877D01*
X7203515Y-17513877D02*
X7193991Y-17494829D01*
X7193991Y-17494829D02*
X7184467Y-17456734D01*
X7184467Y-17456734D02*
X7184467Y-17409115D01*
X7184467Y-17409115D02*
X7193991Y-17371019D01*
X7193991Y-17371019D02*
X7203515Y-17351972D01*
X7203515Y-17351972D02*
X7213039Y-17342448D01*
X7213039Y-17342448D02*
X7232086Y-17332924D01*
X7422562Y-17332924D02*
X7441610Y-17332924D01*
X7441610Y-17332924D02*
X7460658Y-17342448D01*
X7460658Y-17342448D02*
X7470182Y-17351972D01*
X7470182Y-17351972D02*
X7479705Y-17371019D01*
X7479705Y-17371019D02*
X7489229Y-17409115D01*
X7489229Y-17409115D02*
X7489229Y-17456734D01*
X7489229Y-17456734D02*
X7479705Y-17494829D01*
X7479705Y-17494829D02*
X7470182Y-17513877D01*
X7470182Y-17513877D02*
X7460658Y-17523400D01*
X7460658Y-17523400D02*
X7441610Y-17532924D01*
X7441610Y-17532924D02*
X7422562Y-17532924D01*
X7422562Y-17532924D02*
X7403515Y-17523400D01*
X7403515Y-17523400D02*
X7393991Y-17513877D01*
X7393991Y-17513877D02*
X7384467Y-17494829D01*
X7384467Y-17494829D02*
X7374943Y-17456734D01*
X7374943Y-17456734D02*
X7374943Y-17409115D01*
X7374943Y-17409115D02*
X7384467Y-17371019D01*
X7384467Y-17371019D02*
X7393991Y-17351972D01*
X7393991Y-17351972D02*
X7403515Y-17342448D01*
X7403515Y-17342448D02*
X7422562Y-17332924D01*
X7613039Y-17332924D02*
X7632086Y-17332924D01*
X7632086Y-17332924D02*
X7651134Y-17342448D01*
X7651134Y-17342448D02*
X7660658Y-17351972D01*
X7660658Y-17351972D02*
X7670182Y-17371019D01*
X7670182Y-17371019D02*
X7679705Y-17409115D01*
X7679705Y-17409115D02*
X7679705Y-17456734D01*
X7679705Y-17456734D02*
X7670182Y-17494829D01*
X7670182Y-17494829D02*
X7660658Y-17513877D01*
X7660658Y-17513877D02*
X7651134Y-17523400D01*
X7651134Y-17523400D02*
X7632086Y-17532924D01*
X7632086Y-17532924D02*
X7613039Y-17532924D01*
X7613039Y-17532924D02*
X7593991Y-17523400D01*
X7593991Y-17523400D02*
X7584467Y-17513877D01*
X7584467Y-17513877D02*
X7574943Y-17494829D01*
X7574943Y-17494829D02*
X7565420Y-17456734D01*
X7565420Y-17456734D02*
X7565420Y-17409115D01*
X7565420Y-17409115D02*
X7574943Y-17371019D01*
X7574943Y-17371019D02*
X7584467Y-17351972D01*
X7584467Y-17351972D02*
X7593991Y-17342448D01*
X7593991Y-17342448D02*
X7613039Y-17332924D01*
X7765420Y-17532924D02*
X7765420Y-17399591D01*
X7765420Y-17418638D02*
X7774943Y-17409115D01*
X7774943Y-17409115D02*
X7793991Y-17399591D01*
X7793991Y-17399591D02*
X7822563Y-17399591D01*
X7822563Y-17399591D02*
X7841610Y-17409115D01*
X7841610Y-17409115D02*
X7851134Y-17428162D01*
X7851134Y-17428162D02*
X7851134Y-17532924D01*
X7851134Y-17428162D02*
X7860658Y-17409115D01*
X7860658Y-17409115D02*
X7879705Y-17399591D01*
X7879705Y-17399591D02*
X7908277Y-17399591D01*
X7908277Y-17399591D02*
X7927324Y-17409115D01*
X7927324Y-17409115D02*
X7936848Y-17428162D01*
X7936848Y-17428162D02*
X7936848Y-17532924D01*
X8032086Y-17532924D02*
X8032086Y-17399591D01*
X8032086Y-17418638D02*
X8041610Y-17409115D01*
X8041610Y-17409115D02*
X8060658Y-17399591D01*
X8060658Y-17399591D02*
X8089229Y-17399591D01*
X8089229Y-17399591D02*
X8108277Y-17409115D01*
X8108277Y-17409115D02*
X8117801Y-17428162D01*
X8117801Y-17428162D02*
X8117801Y-17532924D01*
X8117801Y-17428162D02*
X8127324Y-17409115D01*
X8127324Y-17409115D02*
X8146372Y-17399591D01*
X8146372Y-17399591D02*
X8174943Y-17399591D01*
X8174943Y-17399591D02*
X8193991Y-17409115D01*
X8193991Y-17409115D02*
X8203515Y-17428162D01*
X8203515Y-17428162D02*
X8203515Y-17532924D01*
X8593991Y-17323400D02*
X8422563Y-17580543D01*
X8851134Y-17332924D02*
X8870182Y-17332924D01*
X8870182Y-17332924D02*
X8889229Y-17342448D01*
X8889229Y-17342448D02*
X8898753Y-17351972D01*
X8898753Y-17351972D02*
X8908277Y-17371019D01*
X8908277Y-17371019D02*
X8917801Y-17409115D01*
X8917801Y-17409115D02*
X8917801Y-17456734D01*
X8917801Y-17456734D02*
X8908277Y-17494829D01*
X8908277Y-17494829D02*
X8898753Y-17513877D01*
X8898753Y-17513877D02*
X8889229Y-17523400D01*
X8889229Y-17523400D02*
X8870182Y-17532924D01*
X8870182Y-17532924D02*
X8851134Y-17532924D01*
X8851134Y-17532924D02*
X8832087Y-17523400D01*
X8832087Y-17523400D02*
X8822563Y-17513877D01*
X8822563Y-17513877D02*
X8813039Y-17494829D01*
X8813039Y-17494829D02*
X8803515Y-17456734D01*
X8803515Y-17456734D02*
X8803515Y-17409115D01*
X8803515Y-17409115D02*
X8813039Y-17371019D01*
X8813039Y-17371019D02*
X8822563Y-17351972D01*
X8822563Y-17351972D02*
X8832087Y-17342448D01*
X8832087Y-17342448D02*
X8851134Y-17332924D01*
X9003515Y-17513877D02*
X9013039Y-17523400D01*
X9013039Y-17523400D02*
X9003515Y-17532924D01*
X9003515Y-17532924D02*
X8993991Y-17523400D01*
X8993991Y-17523400D02*
X9003515Y-17513877D01*
X9003515Y-17513877D02*
X9003515Y-17532924D01*
X9203515Y-17532924D02*
X9089229Y-17532924D01*
X9146372Y-17532924D02*
X9146372Y-17332924D01*
X9146372Y-17332924D02*
X9127325Y-17361496D01*
X9127325Y-17361496D02*
X9108277Y-17380543D01*
X9108277Y-17380543D02*
X9089229Y-17390067D01*
X9393991Y-17532924D02*
X9279706Y-17532924D01*
X9336848Y-17532924D02*
X9336848Y-17332924D01*
X9336848Y-17332924D02*
X9317801Y-17361496D01*
X9317801Y-17361496D02*
X9298753Y-17380543D01*
X9298753Y-17380543D02*
X9279706Y-17390067D01*
X9508277Y-17418638D02*
X9489229Y-17409115D01*
X9489229Y-17409115D02*
X9479706Y-17399591D01*
X9479706Y-17399591D02*
X9470182Y-17380543D01*
X9470182Y-17380543D02*
X9470182Y-17371019D01*
X9470182Y-17371019D02*
X9479706Y-17351972D01*
X9479706Y-17351972D02*
X9489229Y-17342448D01*
X9489229Y-17342448D02*
X9508277Y-17332924D01*
X9508277Y-17332924D02*
X9546372Y-17332924D01*
X9546372Y-17332924D02*
X9565420Y-17342448D01*
X9565420Y-17342448D02*
X9574944Y-17351972D01*
X9574944Y-17351972D02*
X9584468Y-17371019D01*
X9584468Y-17371019D02*
X9584468Y-17380543D01*
X9584468Y-17380543D02*
X9574944Y-17399591D01*
X9574944Y-17399591D02*
X9565420Y-17409115D01*
X9565420Y-17409115D02*
X9546372Y-17418638D01*
X9546372Y-17418638D02*
X9508277Y-17418638D01*
X9508277Y-17418638D02*
X9489229Y-17428162D01*
X9489229Y-17428162D02*
X9479706Y-17437686D01*
X9479706Y-17437686D02*
X9470182Y-17456734D01*
X9470182Y-17456734D02*
X9470182Y-17494829D01*
X9470182Y-17494829D02*
X9479706Y-17513877D01*
X9479706Y-17513877D02*
X9489229Y-17523400D01*
X9489229Y-17523400D02*
X9508277Y-17532924D01*
X9508277Y-17532924D02*
X9546372Y-17532924D01*
X9546372Y-17532924D02*
X9565420Y-17523400D01*
X9565420Y-17523400D02*
X9574944Y-17513877D01*
X9574944Y-17513877D02*
X9584468Y-17494829D01*
X9584468Y-17494829D02*
X9584468Y-17456734D01*
X9584468Y-17456734D02*
X9574944Y-17437686D01*
X9574944Y-17437686D02*
X9565420Y-17428162D01*
X9565420Y-17428162D02*
X9546372Y-17418638D01*
X9774944Y-17532924D02*
X9660658Y-17532924D01*
X9717801Y-17532924D02*
X9717801Y-17332924D01*
X9717801Y-17332924D02*
X9698753Y-17361496D01*
X9698753Y-17361496D02*
X9679706Y-17380543D01*
X9679706Y-17380543D02*
X9660658Y-17390067D01*
X9851134Y-17332924D02*
X9851134Y-17371019D01*
X9927325Y-17332924D02*
X9927325Y-17371019D01*
X10222563Y-17609115D02*
X10213039Y-17599591D01*
X10213039Y-17599591D02*
X10193991Y-17571019D01*
X10193991Y-17571019D02*
X10184468Y-17551972D01*
X10184468Y-17551972D02*
X10174944Y-17523400D01*
X10174944Y-17523400D02*
X10165420Y-17475781D01*
X10165420Y-17475781D02*
X10165420Y-17437686D01*
X10165420Y-17437686D02*
X10174944Y-17390067D01*
X10174944Y-17390067D02*
X10184468Y-17361496D01*
X10184468Y-17361496D02*
X10193991Y-17342448D01*
X10193991Y-17342448D02*
X10213039Y-17313877D01*
X10213039Y-17313877D02*
X10222563Y-17304353D01*
X10403515Y-17532924D02*
X10289230Y-17532924D01*
X10346372Y-17532924D02*
X10346372Y-17332924D01*
X10346372Y-17332924D02*
X10327325Y-17361496D01*
X10327325Y-17361496D02*
X10308277Y-17380543D01*
X10308277Y-17380543D02*
X10289230Y-17390067D01*
X10593991Y-17532924D02*
X10479706Y-17532924D01*
X10536849Y-17532924D02*
X10536849Y-17332924D01*
X10536849Y-17332924D02*
X10517801Y-17361496D01*
X10517801Y-17361496D02*
X10498753Y-17380543D01*
X10498753Y-17380543D02*
X10479706Y-17390067D01*
X10670182Y-17351972D02*
X10679706Y-17342448D01*
X10679706Y-17342448D02*
X10698753Y-17332924D01*
X10698753Y-17332924D02*
X10746372Y-17332924D01*
X10746372Y-17332924D02*
X10765420Y-17342448D01*
X10765420Y-17342448D02*
X10774944Y-17351972D01*
X10774944Y-17351972D02*
X10784468Y-17371019D01*
X10784468Y-17371019D02*
X10784468Y-17390067D01*
X10784468Y-17390067D02*
X10774944Y-17418638D01*
X10774944Y-17418638D02*
X10660658Y-17532924D01*
X10660658Y-17532924D02*
X10784468Y-17532924D01*
X11022563Y-17532924D02*
X11022563Y-17332924D01*
X11108277Y-17532924D02*
X11108277Y-17428162D01*
X11108277Y-17428162D02*
X11098753Y-17409115D01*
X11098753Y-17409115D02*
X11079706Y-17399591D01*
X11079706Y-17399591D02*
X11051134Y-17399591D01*
X11051134Y-17399591D02*
X11032087Y-17409115D01*
X11032087Y-17409115D02*
X11022563Y-17418638D01*
X11232087Y-17532924D02*
X11213039Y-17523400D01*
X11213039Y-17523400D02*
X11203515Y-17513877D01*
X11203515Y-17513877D02*
X11193991Y-17494829D01*
X11193991Y-17494829D02*
X11193991Y-17437686D01*
X11193991Y-17437686D02*
X11203515Y-17418638D01*
X11203515Y-17418638D02*
X11213039Y-17409115D01*
X11213039Y-17409115D02*
X11232087Y-17399591D01*
X11232087Y-17399591D02*
X11260658Y-17399591D01*
X11260658Y-17399591D02*
X11279706Y-17409115D01*
X11279706Y-17409115D02*
X11289230Y-17418638D01*
X11289230Y-17418638D02*
X11298753Y-17437686D01*
X11298753Y-17437686D02*
X11298753Y-17494829D01*
X11298753Y-17494829D02*
X11289230Y-17513877D01*
X11289230Y-17513877D02*
X11279706Y-17523400D01*
X11279706Y-17523400D02*
X11260658Y-17532924D01*
X11260658Y-17532924D02*
X11232087Y-17532924D01*
X11413039Y-17532924D02*
X11393991Y-17523400D01*
X11393991Y-17523400D02*
X11384468Y-17504353D01*
X11384468Y-17504353D02*
X11384468Y-17332924D01*
X11565420Y-17523400D02*
X11546372Y-17532924D01*
X11546372Y-17532924D02*
X11508277Y-17532924D01*
X11508277Y-17532924D02*
X11489230Y-17523400D01*
X11489230Y-17523400D02*
X11479706Y-17504353D01*
X11479706Y-17504353D02*
X11479706Y-17428162D01*
X11479706Y-17428162D02*
X11489230Y-17409115D01*
X11489230Y-17409115D02*
X11508277Y-17399591D01*
X11508277Y-17399591D02*
X11546372Y-17399591D01*
X11546372Y-17399591D02*
X11565420Y-17409115D01*
X11565420Y-17409115D02*
X11574944Y-17428162D01*
X11574944Y-17428162D02*
X11574944Y-17447210D01*
X11574944Y-17447210D02*
X11479706Y-17466258D01*
X11651134Y-17523400D02*
X11670182Y-17532924D01*
X11670182Y-17532924D02*
X11708277Y-17532924D01*
X11708277Y-17532924D02*
X11727325Y-17523400D01*
X11727325Y-17523400D02*
X11736849Y-17504353D01*
X11736849Y-17504353D02*
X11736849Y-17494829D01*
X11736849Y-17494829D02*
X11727325Y-17475781D01*
X11727325Y-17475781D02*
X11708277Y-17466258D01*
X11708277Y-17466258D02*
X11679706Y-17466258D01*
X11679706Y-17466258D02*
X11660658Y-17456734D01*
X11660658Y-17456734D02*
X11651134Y-17437686D01*
X11651134Y-17437686D02*
X11651134Y-17428162D01*
X11651134Y-17428162D02*
X11660658Y-17409115D01*
X11660658Y-17409115D02*
X11679706Y-17399591D01*
X11679706Y-17399591D02*
X11708277Y-17399591D01*
X11708277Y-17399591D02*
X11727325Y-17409115D01*
X11803515Y-17609115D02*
X11813039Y-17599591D01*
X11813039Y-17599591D02*
X11832087Y-17571019D01*
X11832087Y-17571019D02*
X11841611Y-17551972D01*
X11841611Y-17551972D02*
X11851134Y-17523400D01*
X11851134Y-17523400D02*
X11860658Y-17475781D01*
X11860658Y-17475781D02*
X11860658Y-17437686D01*
X11860658Y-17437686D02*
X11851134Y-17390067D01*
X11851134Y-17390067D02*
X11841611Y-17361496D01*
X11841611Y-17361496D02*
X11832087Y-17342448D01*
X11832087Y-17342448D02*
X11813039Y-17313877D01*
X11813039Y-17313877D02*
X11803515Y-17304353D01*
X12165420Y-17609115D02*
X12155896Y-17599591D01*
X12155896Y-17599591D02*
X12136849Y-17571019D01*
X12136849Y-17571019D02*
X12127325Y-17551972D01*
X12127325Y-17551972D02*
X12117801Y-17523400D01*
X12117801Y-17523400D02*
X12108277Y-17475781D01*
X12108277Y-17475781D02*
X12108277Y-17437686D01*
X12108277Y-17437686D02*
X12117801Y-17390067D01*
X12117801Y-17390067D02*
X12127325Y-17361496D01*
X12127325Y-17361496D02*
X12136849Y-17342448D01*
X12136849Y-17342448D02*
X12155896Y-17313877D01*
X12155896Y-17313877D02*
X12165420Y-17304353D01*
X12241611Y-17399591D02*
X12241611Y-17532924D01*
X12241611Y-17418638D02*
X12251134Y-17409115D01*
X12251134Y-17409115D02*
X12270182Y-17399591D01*
X12270182Y-17399591D02*
X12298753Y-17399591D01*
X12298753Y-17399591D02*
X12317801Y-17409115D01*
X12317801Y-17409115D02*
X12327325Y-17428162D01*
X12327325Y-17428162D02*
X12327325Y-17532924D01*
X12451134Y-17532924D02*
X12432087Y-17523400D01*
X12432087Y-17523400D02*
X12422563Y-17513877D01*
X12422563Y-17513877D02*
X12413039Y-17494829D01*
X12413039Y-17494829D02*
X12413039Y-17437686D01*
X12413039Y-17437686D02*
X12422563Y-17418638D01*
X12422563Y-17418638D02*
X12432087Y-17409115D01*
X12432087Y-17409115D02*
X12451134Y-17399591D01*
X12451134Y-17399591D02*
X12479706Y-17399591D01*
X12479706Y-17399591D02*
X12498753Y-17409115D01*
X12498753Y-17409115D02*
X12508277Y-17418638D01*
X12508277Y-17418638D02*
X12517801Y-17437686D01*
X12517801Y-17437686D02*
X12517801Y-17494829D01*
X12517801Y-17494829D02*
X12508277Y-17513877D01*
X12508277Y-17513877D02*
X12498753Y-17523400D01*
X12498753Y-17523400D02*
X12479706Y-17532924D01*
X12479706Y-17532924D02*
X12451134Y-17532924D01*
X12574944Y-17399591D02*
X12651134Y-17399591D01*
X12603515Y-17332924D02*
X12603515Y-17504353D01*
X12603515Y-17504353D02*
X12613039Y-17523400D01*
X12613039Y-17523400D02*
X12632087Y-17532924D01*
X12632087Y-17532924D02*
X12651134Y-17532924D01*
X12870182Y-17399591D02*
X12870182Y-17599591D01*
X12870182Y-17409115D02*
X12889230Y-17399591D01*
X12889230Y-17399591D02*
X12927325Y-17399591D01*
X12927325Y-17399591D02*
X12946373Y-17409115D01*
X12946373Y-17409115D02*
X12955896Y-17418638D01*
X12955896Y-17418638D02*
X12965420Y-17437686D01*
X12965420Y-17437686D02*
X12965420Y-17494829D01*
X12965420Y-17494829D02*
X12955896Y-17513877D01*
X12955896Y-17513877D02*
X12946373Y-17523400D01*
X12946373Y-17523400D02*
X12927325Y-17532924D01*
X12927325Y-17532924D02*
X12889230Y-17532924D01*
X12889230Y-17532924D02*
X12870182Y-17523400D01*
X13079706Y-17532924D02*
X13060658Y-17523400D01*
X13060658Y-17523400D02*
X13051134Y-17504353D01*
X13051134Y-17504353D02*
X13051134Y-17332924D01*
X13241611Y-17532924D02*
X13241611Y-17428162D01*
X13241611Y-17428162D02*
X13232087Y-17409115D01*
X13232087Y-17409115D02*
X13213039Y-17399591D01*
X13213039Y-17399591D02*
X13174944Y-17399591D01*
X13174944Y-17399591D02*
X13155896Y-17409115D01*
X13241611Y-17523400D02*
X13222563Y-17532924D01*
X13222563Y-17532924D02*
X13174944Y-17532924D01*
X13174944Y-17532924D02*
X13155896Y-17523400D01*
X13155896Y-17523400D02*
X13146373Y-17504353D01*
X13146373Y-17504353D02*
X13146373Y-17485305D01*
X13146373Y-17485305D02*
X13155896Y-17466258D01*
X13155896Y-17466258D02*
X13174944Y-17456734D01*
X13174944Y-17456734D02*
X13222563Y-17456734D01*
X13222563Y-17456734D02*
X13241611Y-17447210D01*
X13308277Y-17399591D02*
X13384468Y-17399591D01*
X13336849Y-17332924D02*
X13336849Y-17504353D01*
X13336849Y-17504353D02*
X13346373Y-17523400D01*
X13346373Y-17523400D02*
X13365420Y-17532924D01*
X13365420Y-17532924D02*
X13384468Y-17532924D01*
X13527325Y-17523400D02*
X13508277Y-17532924D01*
X13508277Y-17532924D02*
X13470182Y-17532924D01*
X13470182Y-17532924D02*
X13451134Y-17523400D01*
X13451134Y-17523400D02*
X13441611Y-17504353D01*
X13441611Y-17504353D02*
X13441611Y-17428162D01*
X13441611Y-17428162D02*
X13451134Y-17409115D01*
X13451134Y-17409115D02*
X13470182Y-17399591D01*
X13470182Y-17399591D02*
X13508277Y-17399591D01*
X13508277Y-17399591D02*
X13527325Y-17409115D01*
X13527325Y-17409115D02*
X13536849Y-17428162D01*
X13536849Y-17428162D02*
X13536849Y-17447210D01*
X13536849Y-17447210D02*
X13441611Y-17466258D01*
X13708277Y-17532924D02*
X13708277Y-17332924D01*
X13708277Y-17523400D02*
X13689230Y-17532924D01*
X13689230Y-17532924D02*
X13651134Y-17532924D01*
X13651134Y-17532924D02*
X13632087Y-17523400D01*
X13632087Y-17523400D02*
X13622563Y-17513877D01*
X13622563Y-17513877D02*
X13613039Y-17494829D01*
X13613039Y-17494829D02*
X13613039Y-17437686D01*
X13613039Y-17437686D02*
X13622563Y-17418638D01*
X13622563Y-17418638D02*
X13632087Y-17409115D01*
X13632087Y-17409115D02*
X13651134Y-17399591D01*
X13651134Y-17399591D02*
X13689230Y-17399591D01*
X13689230Y-17399591D02*
X13708277Y-17409115D01*
X13784468Y-17609115D02*
X13793992Y-17599591D01*
X13793992Y-17599591D02*
X13813039Y-17571019D01*
X13813039Y-17571019D02*
X13822563Y-17551972D01*
X13822563Y-17551972D02*
X13832087Y-17523400D01*
X13832087Y-17523400D02*
X13841611Y-17475781D01*
X13841611Y-17475781D02*
X13841611Y-17437686D01*
X13841611Y-17437686D02*
X13832087Y-17390067D01*
X13832087Y-17390067D02*
X13822563Y-17361496D01*
X13822563Y-17361496D02*
X13813039Y-17342448D01*
X13813039Y-17342448D02*
X13793992Y-17313877D01*
X13793992Y-17313877D02*
X13784468Y-17304353D01*
X6647500Y-17761440D02*
G75*
G02*
X6447500Y-17761440I-100000J0D01*
G01*
X6447500Y-17761440D02*
G75*
G02*
X6647500Y-17761440I100000J0D01*
G01*
X6889229Y-17652924D02*
X7013039Y-17652924D01*
X7013039Y-17652924D02*
X6946372Y-17729115D01*
X6946372Y-17729115D02*
X6974943Y-17729115D01*
X6974943Y-17729115D02*
X6993991Y-17738638D01*
X6993991Y-17738638D02*
X7003515Y-17748162D01*
X7003515Y-17748162D02*
X7013039Y-17767210D01*
X7013039Y-17767210D02*
X7013039Y-17814829D01*
X7013039Y-17814829D02*
X7003515Y-17833877D01*
X7003515Y-17833877D02*
X6993991Y-17843400D01*
X6993991Y-17843400D02*
X6974943Y-17852924D01*
X6974943Y-17852924D02*
X6917801Y-17852924D01*
X6917801Y-17852924D02*
X6898753Y-17843400D01*
X6898753Y-17843400D02*
X6889229Y-17833877D01*
X7098753Y-17833877D02*
X7108277Y-17843400D01*
X7108277Y-17843400D02*
X7098753Y-17852924D01*
X7098753Y-17852924D02*
X7089229Y-17843400D01*
X7089229Y-17843400D02*
X7098753Y-17833877D01*
X7098753Y-17833877D02*
X7098753Y-17852924D01*
X7184467Y-17671972D02*
X7193991Y-17662448D01*
X7193991Y-17662448D02*
X7213039Y-17652924D01*
X7213039Y-17652924D02*
X7260658Y-17652924D01*
X7260658Y-17652924D02*
X7279705Y-17662448D01*
X7279705Y-17662448D02*
X7289229Y-17671972D01*
X7289229Y-17671972D02*
X7298753Y-17691019D01*
X7298753Y-17691019D02*
X7298753Y-17710067D01*
X7298753Y-17710067D02*
X7289229Y-17738638D01*
X7289229Y-17738638D02*
X7174943Y-17852924D01*
X7174943Y-17852924D02*
X7298753Y-17852924D01*
X7422562Y-17652924D02*
X7441610Y-17652924D01*
X7441610Y-17652924D02*
X7460658Y-17662448D01*
X7460658Y-17662448D02*
X7470182Y-17671972D01*
X7470182Y-17671972D02*
X7479705Y-17691019D01*
X7479705Y-17691019D02*
X7489229Y-17729115D01*
X7489229Y-17729115D02*
X7489229Y-17776734D01*
X7489229Y-17776734D02*
X7479705Y-17814829D01*
X7479705Y-17814829D02*
X7470182Y-17833877D01*
X7470182Y-17833877D02*
X7460658Y-17843400D01*
X7460658Y-17843400D02*
X7441610Y-17852924D01*
X7441610Y-17852924D02*
X7422562Y-17852924D01*
X7422562Y-17852924D02*
X7403515Y-17843400D01*
X7403515Y-17843400D02*
X7393991Y-17833877D01*
X7393991Y-17833877D02*
X7384467Y-17814829D01*
X7384467Y-17814829D02*
X7374943Y-17776734D01*
X7374943Y-17776734D02*
X7374943Y-17729115D01*
X7374943Y-17729115D02*
X7384467Y-17691019D01*
X7384467Y-17691019D02*
X7393991Y-17671972D01*
X7393991Y-17671972D02*
X7403515Y-17662448D01*
X7403515Y-17662448D02*
X7422562Y-17652924D01*
X7613039Y-17652924D02*
X7632086Y-17652924D01*
X7632086Y-17652924D02*
X7651134Y-17662448D01*
X7651134Y-17662448D02*
X7660658Y-17671972D01*
X7660658Y-17671972D02*
X7670182Y-17691019D01*
X7670182Y-17691019D02*
X7679705Y-17729115D01*
X7679705Y-17729115D02*
X7679705Y-17776734D01*
X7679705Y-17776734D02*
X7670182Y-17814829D01*
X7670182Y-17814829D02*
X7660658Y-17833877D01*
X7660658Y-17833877D02*
X7651134Y-17843400D01*
X7651134Y-17843400D02*
X7632086Y-17852924D01*
X7632086Y-17852924D02*
X7613039Y-17852924D01*
X7613039Y-17852924D02*
X7593991Y-17843400D01*
X7593991Y-17843400D02*
X7584467Y-17833877D01*
X7584467Y-17833877D02*
X7574943Y-17814829D01*
X7574943Y-17814829D02*
X7565420Y-17776734D01*
X7565420Y-17776734D02*
X7565420Y-17729115D01*
X7565420Y-17729115D02*
X7574943Y-17691019D01*
X7574943Y-17691019D02*
X7584467Y-17671972D01*
X7584467Y-17671972D02*
X7593991Y-17662448D01*
X7593991Y-17662448D02*
X7613039Y-17652924D01*
X7765420Y-17852924D02*
X7765420Y-17719591D01*
X7765420Y-17738638D02*
X7774943Y-17729115D01*
X7774943Y-17729115D02*
X7793991Y-17719591D01*
X7793991Y-17719591D02*
X7822563Y-17719591D01*
X7822563Y-17719591D02*
X7841610Y-17729115D01*
X7841610Y-17729115D02*
X7851134Y-17748162D01*
X7851134Y-17748162D02*
X7851134Y-17852924D01*
X7851134Y-17748162D02*
X7860658Y-17729115D01*
X7860658Y-17729115D02*
X7879705Y-17719591D01*
X7879705Y-17719591D02*
X7908277Y-17719591D01*
X7908277Y-17719591D02*
X7927324Y-17729115D01*
X7927324Y-17729115D02*
X7936848Y-17748162D01*
X7936848Y-17748162D02*
X7936848Y-17852924D01*
X8032086Y-17852924D02*
X8032086Y-17719591D01*
X8032086Y-17738638D02*
X8041610Y-17729115D01*
X8041610Y-17729115D02*
X8060658Y-17719591D01*
X8060658Y-17719591D02*
X8089229Y-17719591D01*
X8089229Y-17719591D02*
X8108277Y-17729115D01*
X8108277Y-17729115D02*
X8117801Y-17748162D01*
X8117801Y-17748162D02*
X8117801Y-17852924D01*
X8117801Y-17748162D02*
X8127324Y-17729115D01*
X8127324Y-17729115D02*
X8146372Y-17719591D01*
X8146372Y-17719591D02*
X8174943Y-17719591D01*
X8174943Y-17719591D02*
X8193991Y-17729115D01*
X8193991Y-17729115D02*
X8203515Y-17748162D01*
X8203515Y-17748162D02*
X8203515Y-17852924D01*
X8593991Y-17643400D02*
X8422563Y-17900543D01*
X8851134Y-17652924D02*
X8870182Y-17652924D01*
X8870182Y-17652924D02*
X8889229Y-17662448D01*
X8889229Y-17662448D02*
X8898753Y-17671972D01*
X8898753Y-17671972D02*
X8908277Y-17691019D01*
X8908277Y-17691019D02*
X8917801Y-17729115D01*
X8917801Y-17729115D02*
X8917801Y-17776734D01*
X8917801Y-17776734D02*
X8908277Y-17814829D01*
X8908277Y-17814829D02*
X8898753Y-17833877D01*
X8898753Y-17833877D02*
X8889229Y-17843400D01*
X8889229Y-17843400D02*
X8870182Y-17852924D01*
X8870182Y-17852924D02*
X8851134Y-17852924D01*
X8851134Y-17852924D02*
X8832087Y-17843400D01*
X8832087Y-17843400D02*
X8822563Y-17833877D01*
X8822563Y-17833877D02*
X8813039Y-17814829D01*
X8813039Y-17814829D02*
X8803515Y-17776734D01*
X8803515Y-17776734D02*
X8803515Y-17729115D01*
X8803515Y-17729115D02*
X8813039Y-17691019D01*
X8813039Y-17691019D02*
X8822563Y-17671972D01*
X8822563Y-17671972D02*
X8832087Y-17662448D01*
X8832087Y-17662448D02*
X8851134Y-17652924D01*
X9003515Y-17833877D02*
X9013039Y-17843400D01*
X9013039Y-17843400D02*
X9003515Y-17852924D01*
X9003515Y-17852924D02*
X8993991Y-17843400D01*
X8993991Y-17843400D02*
X9003515Y-17833877D01*
X9003515Y-17833877D02*
X9003515Y-17852924D01*
X9203515Y-17852924D02*
X9089229Y-17852924D01*
X9146372Y-17852924D02*
X9146372Y-17652924D01*
X9146372Y-17652924D02*
X9127325Y-17681496D01*
X9127325Y-17681496D02*
X9108277Y-17700543D01*
X9108277Y-17700543D02*
X9089229Y-17710067D01*
X9279706Y-17671972D02*
X9289229Y-17662448D01*
X9289229Y-17662448D02*
X9308277Y-17652924D01*
X9308277Y-17652924D02*
X9355896Y-17652924D01*
X9355896Y-17652924D02*
X9374944Y-17662448D01*
X9374944Y-17662448D02*
X9384468Y-17671972D01*
X9384468Y-17671972D02*
X9393991Y-17691019D01*
X9393991Y-17691019D02*
X9393991Y-17710067D01*
X9393991Y-17710067D02*
X9384468Y-17738638D01*
X9384468Y-17738638D02*
X9270182Y-17852924D01*
X9270182Y-17852924D02*
X9393991Y-17852924D01*
X9565420Y-17652924D02*
X9527325Y-17652924D01*
X9527325Y-17652924D02*
X9508277Y-17662448D01*
X9508277Y-17662448D02*
X9498753Y-17671972D01*
X9498753Y-17671972D02*
X9479706Y-17700543D01*
X9479706Y-17700543D02*
X9470182Y-17738638D01*
X9470182Y-17738638D02*
X9470182Y-17814829D01*
X9470182Y-17814829D02*
X9479706Y-17833877D01*
X9479706Y-17833877D02*
X9489229Y-17843400D01*
X9489229Y-17843400D02*
X9508277Y-17852924D01*
X9508277Y-17852924D02*
X9546372Y-17852924D01*
X9546372Y-17852924D02*
X9565420Y-17843400D01*
X9565420Y-17843400D02*
X9574944Y-17833877D01*
X9574944Y-17833877D02*
X9584468Y-17814829D01*
X9584468Y-17814829D02*
X9584468Y-17767210D01*
X9584468Y-17767210D02*
X9574944Y-17748162D01*
X9574944Y-17748162D02*
X9565420Y-17738638D01*
X9565420Y-17738638D02*
X9546372Y-17729115D01*
X9546372Y-17729115D02*
X9508277Y-17729115D01*
X9508277Y-17729115D02*
X9489229Y-17738638D01*
X9489229Y-17738638D02*
X9479706Y-17748162D01*
X9479706Y-17748162D02*
X9470182Y-17767210D01*
X9708277Y-17652924D02*
X9727325Y-17652924D01*
X9727325Y-17652924D02*
X9746372Y-17662448D01*
X9746372Y-17662448D02*
X9755896Y-17671972D01*
X9755896Y-17671972D02*
X9765420Y-17691019D01*
X9765420Y-17691019D02*
X9774944Y-17729115D01*
X9774944Y-17729115D02*
X9774944Y-17776734D01*
X9774944Y-17776734D02*
X9765420Y-17814829D01*
X9765420Y-17814829D02*
X9755896Y-17833877D01*
X9755896Y-17833877D02*
X9746372Y-17843400D01*
X9746372Y-17843400D02*
X9727325Y-17852924D01*
X9727325Y-17852924D02*
X9708277Y-17852924D01*
X9708277Y-17852924D02*
X9689229Y-17843400D01*
X9689229Y-17843400D02*
X9679706Y-17833877D01*
X9679706Y-17833877D02*
X9670182Y-17814829D01*
X9670182Y-17814829D02*
X9660658Y-17776734D01*
X9660658Y-17776734D02*
X9660658Y-17729115D01*
X9660658Y-17729115D02*
X9670182Y-17691019D01*
X9670182Y-17691019D02*
X9679706Y-17671972D01*
X9679706Y-17671972D02*
X9689229Y-17662448D01*
X9689229Y-17662448D02*
X9708277Y-17652924D01*
X9851134Y-17652924D02*
X9851134Y-17691019D01*
X9927325Y-17652924D02*
X9927325Y-17691019D01*
X10222563Y-17929115D02*
X10213039Y-17919591D01*
X10213039Y-17919591D02*
X10193991Y-17891019D01*
X10193991Y-17891019D02*
X10184468Y-17871972D01*
X10184468Y-17871972D02*
X10174944Y-17843400D01*
X10174944Y-17843400D02*
X10165420Y-17795781D01*
X10165420Y-17795781D02*
X10165420Y-17757686D01*
X10165420Y-17757686D02*
X10174944Y-17710067D01*
X10174944Y-17710067D02*
X10184468Y-17681496D01*
X10184468Y-17681496D02*
X10193991Y-17662448D01*
X10193991Y-17662448D02*
X10213039Y-17633877D01*
X10213039Y-17633877D02*
X10222563Y-17624353D01*
X10289230Y-17671972D02*
X10298753Y-17662448D01*
X10298753Y-17662448D02*
X10317801Y-17652924D01*
X10317801Y-17652924D02*
X10365420Y-17652924D01*
X10365420Y-17652924D02*
X10384468Y-17662448D01*
X10384468Y-17662448D02*
X10393991Y-17671972D01*
X10393991Y-17671972D02*
X10403515Y-17691019D01*
X10403515Y-17691019D02*
X10403515Y-17710067D01*
X10403515Y-17710067D02*
X10393991Y-17738638D01*
X10393991Y-17738638D02*
X10279706Y-17852924D01*
X10279706Y-17852924D02*
X10403515Y-17852924D01*
X10641611Y-17852924D02*
X10641611Y-17652924D01*
X10727325Y-17852924D02*
X10727325Y-17748162D01*
X10727325Y-17748162D02*
X10717801Y-17729115D01*
X10717801Y-17729115D02*
X10698753Y-17719591D01*
X10698753Y-17719591D02*
X10670182Y-17719591D01*
X10670182Y-17719591D02*
X10651134Y-17729115D01*
X10651134Y-17729115D02*
X10641611Y-17738638D01*
X10851134Y-17852924D02*
X10832087Y-17843400D01*
X10832087Y-17843400D02*
X10822563Y-17833877D01*
X10822563Y-17833877D02*
X10813039Y-17814829D01*
X10813039Y-17814829D02*
X10813039Y-17757686D01*
X10813039Y-17757686D02*
X10822563Y-17738638D01*
X10822563Y-17738638D02*
X10832087Y-17729115D01*
X10832087Y-17729115D02*
X10851134Y-17719591D01*
X10851134Y-17719591D02*
X10879706Y-17719591D01*
X10879706Y-17719591D02*
X10898753Y-17729115D01*
X10898753Y-17729115D02*
X10908277Y-17738638D01*
X10908277Y-17738638D02*
X10917801Y-17757686D01*
X10917801Y-17757686D02*
X10917801Y-17814829D01*
X10917801Y-17814829D02*
X10908277Y-17833877D01*
X10908277Y-17833877D02*
X10898753Y-17843400D01*
X10898753Y-17843400D02*
X10879706Y-17852924D01*
X10879706Y-17852924D02*
X10851134Y-17852924D01*
X11032087Y-17852924D02*
X11013039Y-17843400D01*
X11013039Y-17843400D02*
X11003515Y-17824353D01*
X11003515Y-17824353D02*
X11003515Y-17652924D01*
X11184468Y-17843400D02*
X11165420Y-17852924D01*
X11165420Y-17852924D02*
X11127325Y-17852924D01*
X11127325Y-17852924D02*
X11108277Y-17843400D01*
X11108277Y-17843400D02*
X11098753Y-17824353D01*
X11098753Y-17824353D02*
X11098753Y-17748162D01*
X11098753Y-17748162D02*
X11108277Y-17729115D01*
X11108277Y-17729115D02*
X11127325Y-17719591D01*
X11127325Y-17719591D02*
X11165420Y-17719591D01*
X11165420Y-17719591D02*
X11184468Y-17729115D01*
X11184468Y-17729115D02*
X11193991Y-17748162D01*
X11193991Y-17748162D02*
X11193991Y-17767210D01*
X11193991Y-17767210D02*
X11098753Y-17786258D01*
X11270182Y-17843400D02*
X11289230Y-17852924D01*
X11289230Y-17852924D02*
X11327325Y-17852924D01*
X11327325Y-17852924D02*
X11346372Y-17843400D01*
X11346372Y-17843400D02*
X11355896Y-17824353D01*
X11355896Y-17824353D02*
X11355896Y-17814829D01*
X11355896Y-17814829D02*
X11346372Y-17795781D01*
X11346372Y-17795781D02*
X11327325Y-17786258D01*
X11327325Y-17786258D02*
X11298753Y-17786258D01*
X11298753Y-17786258D02*
X11279706Y-17776734D01*
X11279706Y-17776734D02*
X11270182Y-17757686D01*
X11270182Y-17757686D02*
X11270182Y-17748162D01*
X11270182Y-17748162D02*
X11279706Y-17729115D01*
X11279706Y-17729115D02*
X11298753Y-17719591D01*
X11298753Y-17719591D02*
X11327325Y-17719591D01*
X11327325Y-17719591D02*
X11346372Y-17729115D01*
X11422563Y-17929115D02*
X11432087Y-17919591D01*
X11432087Y-17919591D02*
X11451134Y-17891019D01*
X11451134Y-17891019D02*
X11460658Y-17871972D01*
X11460658Y-17871972D02*
X11470182Y-17843400D01*
X11470182Y-17843400D02*
X11479706Y-17795781D01*
X11479706Y-17795781D02*
X11479706Y-17757686D01*
X11479706Y-17757686D02*
X11470182Y-17710067D01*
X11470182Y-17710067D02*
X11460658Y-17681496D01*
X11460658Y-17681496D02*
X11451134Y-17662448D01*
X11451134Y-17662448D02*
X11432087Y-17633877D01*
X11432087Y-17633877D02*
X11422563Y-17624353D01*
X11784468Y-17929115D02*
X11774944Y-17919591D01*
X11774944Y-17919591D02*
X11755896Y-17891019D01*
X11755896Y-17891019D02*
X11746372Y-17871972D01*
X11746372Y-17871972D02*
X11736849Y-17843400D01*
X11736849Y-17843400D02*
X11727325Y-17795781D01*
X11727325Y-17795781D02*
X11727325Y-17757686D01*
X11727325Y-17757686D02*
X11736849Y-17710067D01*
X11736849Y-17710067D02*
X11746372Y-17681496D01*
X11746372Y-17681496D02*
X11755896Y-17662448D01*
X11755896Y-17662448D02*
X11774944Y-17633877D01*
X11774944Y-17633877D02*
X11784468Y-17624353D01*
X11860658Y-17719591D02*
X11860658Y-17852924D01*
X11860658Y-17738638D02*
X11870182Y-17729115D01*
X11870182Y-17729115D02*
X11889230Y-17719591D01*
X11889230Y-17719591D02*
X11917801Y-17719591D01*
X11917801Y-17719591D02*
X11936849Y-17729115D01*
X11936849Y-17729115D02*
X11946372Y-17748162D01*
X11946372Y-17748162D02*
X11946372Y-17852924D01*
X12070182Y-17852924D02*
X12051134Y-17843400D01*
X12051134Y-17843400D02*
X12041611Y-17833877D01*
X12041611Y-17833877D02*
X12032087Y-17814829D01*
X12032087Y-17814829D02*
X12032087Y-17757686D01*
X12032087Y-17757686D02*
X12041611Y-17738638D01*
X12041611Y-17738638D02*
X12051134Y-17729115D01*
X12051134Y-17729115D02*
X12070182Y-17719591D01*
X12070182Y-17719591D02*
X12098753Y-17719591D01*
X12098753Y-17719591D02*
X12117801Y-17729115D01*
X12117801Y-17729115D02*
X12127325Y-17738638D01*
X12127325Y-17738638D02*
X12136849Y-17757686D01*
X12136849Y-17757686D02*
X12136849Y-17814829D01*
X12136849Y-17814829D02*
X12127325Y-17833877D01*
X12127325Y-17833877D02*
X12117801Y-17843400D01*
X12117801Y-17843400D02*
X12098753Y-17852924D01*
X12098753Y-17852924D02*
X12070182Y-17852924D01*
X12193992Y-17719591D02*
X12270182Y-17719591D01*
X12222563Y-17652924D02*
X12222563Y-17824353D01*
X12222563Y-17824353D02*
X12232087Y-17843400D01*
X12232087Y-17843400D02*
X12251134Y-17852924D01*
X12251134Y-17852924D02*
X12270182Y-17852924D01*
X12489230Y-17719591D02*
X12489230Y-17919591D01*
X12489230Y-17729115D02*
X12508277Y-17719591D01*
X12508277Y-17719591D02*
X12546373Y-17719591D01*
X12546373Y-17719591D02*
X12565420Y-17729115D01*
X12565420Y-17729115D02*
X12574944Y-17738638D01*
X12574944Y-17738638D02*
X12584468Y-17757686D01*
X12584468Y-17757686D02*
X12584468Y-17814829D01*
X12584468Y-17814829D02*
X12574944Y-17833877D01*
X12574944Y-17833877D02*
X12565420Y-17843400D01*
X12565420Y-17843400D02*
X12546373Y-17852924D01*
X12546373Y-17852924D02*
X12508277Y-17852924D01*
X12508277Y-17852924D02*
X12489230Y-17843400D01*
X12698753Y-17852924D02*
X12679706Y-17843400D01*
X12679706Y-17843400D02*
X12670182Y-17824353D01*
X12670182Y-17824353D02*
X12670182Y-17652924D01*
X12860658Y-17852924D02*
X12860658Y-17748162D01*
X12860658Y-17748162D02*
X12851134Y-17729115D01*
X12851134Y-17729115D02*
X12832087Y-17719591D01*
X12832087Y-17719591D02*
X12793992Y-17719591D01*
X12793992Y-17719591D02*
X12774944Y-17729115D01*
X12860658Y-17843400D02*
X12841611Y-17852924D01*
X12841611Y-17852924D02*
X12793992Y-17852924D01*
X12793992Y-17852924D02*
X12774944Y-17843400D01*
X12774944Y-17843400D02*
X12765420Y-17824353D01*
X12765420Y-17824353D02*
X12765420Y-17805305D01*
X12765420Y-17805305D02*
X12774944Y-17786258D01*
X12774944Y-17786258D02*
X12793992Y-17776734D01*
X12793992Y-17776734D02*
X12841611Y-17776734D01*
X12841611Y-17776734D02*
X12860658Y-17767210D01*
X12927325Y-17719591D02*
X13003515Y-17719591D01*
X12955896Y-17652924D02*
X12955896Y-17824353D01*
X12955896Y-17824353D02*
X12965420Y-17843400D01*
X12965420Y-17843400D02*
X12984468Y-17852924D01*
X12984468Y-17852924D02*
X13003515Y-17852924D01*
X13146373Y-17843400D02*
X13127325Y-17852924D01*
X13127325Y-17852924D02*
X13089230Y-17852924D01*
X13089230Y-17852924D02*
X13070182Y-17843400D01*
X13070182Y-17843400D02*
X13060658Y-17824353D01*
X13060658Y-17824353D02*
X13060658Y-17748162D01*
X13060658Y-17748162D02*
X13070182Y-17729115D01*
X13070182Y-17729115D02*
X13089230Y-17719591D01*
X13089230Y-17719591D02*
X13127325Y-17719591D01*
X13127325Y-17719591D02*
X13146373Y-17729115D01*
X13146373Y-17729115D02*
X13155896Y-17748162D01*
X13155896Y-17748162D02*
X13155896Y-17767210D01*
X13155896Y-17767210D02*
X13060658Y-17786258D01*
X13327325Y-17852924D02*
X13327325Y-17652924D01*
X13327325Y-17843400D02*
X13308277Y-17852924D01*
X13308277Y-17852924D02*
X13270182Y-17852924D01*
X13270182Y-17852924D02*
X13251134Y-17843400D01*
X13251134Y-17843400D02*
X13241611Y-17833877D01*
X13241611Y-17833877D02*
X13232087Y-17814829D01*
X13232087Y-17814829D02*
X13232087Y-17757686D01*
X13232087Y-17757686D02*
X13241611Y-17738638D01*
X13241611Y-17738638D02*
X13251134Y-17729115D01*
X13251134Y-17729115D02*
X13270182Y-17719591D01*
X13270182Y-17719591D02*
X13308277Y-17719591D01*
X13308277Y-17719591D02*
X13327325Y-17729115D01*
X13403515Y-17929115D02*
X13413039Y-17919591D01*
X13413039Y-17919591D02*
X13432087Y-17891019D01*
X13432087Y-17891019D02*
X13441611Y-17871972D01*
X13441611Y-17871972D02*
X13451134Y-17843400D01*
X13451134Y-17843400D02*
X13460658Y-17795781D01*
X13460658Y-17795781D02*
X13460658Y-17757686D01*
X13460658Y-17757686D02*
X13451134Y-17710067D01*
X13451134Y-17710067D02*
X13441611Y-17681496D01*
X13441611Y-17681496D02*
X13432087Y-17662448D01*
X13432087Y-17662448D02*
X13413039Y-17633877D01*
X13413039Y-17633877D02*
X13403515Y-17624353D01*
X6547500Y-17981440D02*
X6547500Y-18181440D01*
X6447500Y-18081440D02*
X6647500Y-18081440D01*
X6889229Y-17972924D02*
X7013039Y-17972924D01*
X7013039Y-17972924D02*
X6946372Y-18049115D01*
X6946372Y-18049115D02*
X6974943Y-18049115D01*
X6974943Y-18049115D02*
X6993991Y-18058638D01*
X6993991Y-18058638D02*
X7003515Y-18068162D01*
X7003515Y-18068162D02*
X7013039Y-18087210D01*
X7013039Y-18087210D02*
X7013039Y-18134829D01*
X7013039Y-18134829D02*
X7003515Y-18153877D01*
X7003515Y-18153877D02*
X6993991Y-18163400D01*
X6993991Y-18163400D02*
X6974943Y-18172924D01*
X6974943Y-18172924D02*
X6917801Y-18172924D01*
X6917801Y-18172924D02*
X6898753Y-18163400D01*
X6898753Y-18163400D02*
X6889229Y-18153877D01*
X7098753Y-18153877D02*
X7108277Y-18163400D01*
X7108277Y-18163400D02*
X7098753Y-18172924D01*
X7098753Y-18172924D02*
X7089229Y-18163400D01*
X7089229Y-18163400D02*
X7098753Y-18153877D01*
X7098753Y-18153877D02*
X7098753Y-18172924D01*
X7184467Y-17991972D02*
X7193991Y-17982448D01*
X7193991Y-17982448D02*
X7213039Y-17972924D01*
X7213039Y-17972924D02*
X7260658Y-17972924D01*
X7260658Y-17972924D02*
X7279705Y-17982448D01*
X7279705Y-17982448D02*
X7289229Y-17991972D01*
X7289229Y-17991972D02*
X7298753Y-18011019D01*
X7298753Y-18011019D02*
X7298753Y-18030067D01*
X7298753Y-18030067D02*
X7289229Y-18058638D01*
X7289229Y-18058638D02*
X7174943Y-18172924D01*
X7174943Y-18172924D02*
X7298753Y-18172924D01*
X7479705Y-17972924D02*
X7384467Y-17972924D01*
X7384467Y-17972924D02*
X7374943Y-18068162D01*
X7374943Y-18068162D02*
X7384467Y-18058638D01*
X7384467Y-18058638D02*
X7403515Y-18049115D01*
X7403515Y-18049115D02*
X7451134Y-18049115D01*
X7451134Y-18049115D02*
X7470182Y-18058638D01*
X7470182Y-18058638D02*
X7479705Y-18068162D01*
X7479705Y-18068162D02*
X7489229Y-18087210D01*
X7489229Y-18087210D02*
X7489229Y-18134829D01*
X7489229Y-18134829D02*
X7479705Y-18153877D01*
X7479705Y-18153877D02*
X7470182Y-18163400D01*
X7470182Y-18163400D02*
X7451134Y-18172924D01*
X7451134Y-18172924D02*
X7403515Y-18172924D01*
X7403515Y-18172924D02*
X7384467Y-18163400D01*
X7384467Y-18163400D02*
X7374943Y-18153877D01*
X7613039Y-17972924D02*
X7632086Y-17972924D01*
X7632086Y-17972924D02*
X7651134Y-17982448D01*
X7651134Y-17982448D02*
X7660658Y-17991972D01*
X7660658Y-17991972D02*
X7670182Y-18011019D01*
X7670182Y-18011019D02*
X7679705Y-18049115D01*
X7679705Y-18049115D02*
X7679705Y-18096734D01*
X7679705Y-18096734D02*
X7670182Y-18134829D01*
X7670182Y-18134829D02*
X7660658Y-18153877D01*
X7660658Y-18153877D02*
X7651134Y-18163400D01*
X7651134Y-18163400D02*
X7632086Y-18172924D01*
X7632086Y-18172924D02*
X7613039Y-18172924D01*
X7613039Y-18172924D02*
X7593991Y-18163400D01*
X7593991Y-18163400D02*
X7584467Y-18153877D01*
X7584467Y-18153877D02*
X7574943Y-18134829D01*
X7574943Y-18134829D02*
X7565420Y-18096734D01*
X7565420Y-18096734D02*
X7565420Y-18049115D01*
X7565420Y-18049115D02*
X7574943Y-18011019D01*
X7574943Y-18011019D02*
X7584467Y-17991972D01*
X7584467Y-17991972D02*
X7593991Y-17982448D01*
X7593991Y-17982448D02*
X7613039Y-17972924D01*
X7765420Y-18172924D02*
X7765420Y-18039591D01*
X7765420Y-18058638D02*
X7774943Y-18049115D01*
X7774943Y-18049115D02*
X7793991Y-18039591D01*
X7793991Y-18039591D02*
X7822563Y-18039591D01*
X7822563Y-18039591D02*
X7841610Y-18049115D01*
X7841610Y-18049115D02*
X7851134Y-18068162D01*
X7851134Y-18068162D02*
X7851134Y-18172924D01*
X7851134Y-18068162D02*
X7860658Y-18049115D01*
X7860658Y-18049115D02*
X7879705Y-18039591D01*
X7879705Y-18039591D02*
X7908277Y-18039591D01*
X7908277Y-18039591D02*
X7927324Y-18049115D01*
X7927324Y-18049115D02*
X7936848Y-18068162D01*
X7936848Y-18068162D02*
X7936848Y-18172924D01*
X8032086Y-18172924D02*
X8032086Y-18039591D01*
X8032086Y-18058638D02*
X8041610Y-18049115D01*
X8041610Y-18049115D02*
X8060658Y-18039591D01*
X8060658Y-18039591D02*
X8089229Y-18039591D01*
X8089229Y-18039591D02*
X8108277Y-18049115D01*
X8108277Y-18049115D02*
X8117801Y-18068162D01*
X8117801Y-18068162D02*
X8117801Y-18172924D01*
X8117801Y-18068162D02*
X8127324Y-18049115D01*
X8127324Y-18049115D02*
X8146372Y-18039591D01*
X8146372Y-18039591D02*
X8174943Y-18039591D01*
X8174943Y-18039591D02*
X8193991Y-18049115D01*
X8193991Y-18049115D02*
X8203515Y-18068162D01*
X8203515Y-18068162D02*
X8203515Y-18172924D01*
X8593991Y-17963400D02*
X8422563Y-18220543D01*
X8851134Y-17972924D02*
X8870182Y-17972924D01*
X8870182Y-17972924D02*
X8889229Y-17982448D01*
X8889229Y-17982448D02*
X8898753Y-17991972D01*
X8898753Y-17991972D02*
X8908277Y-18011019D01*
X8908277Y-18011019D02*
X8917801Y-18049115D01*
X8917801Y-18049115D02*
X8917801Y-18096734D01*
X8917801Y-18096734D02*
X8908277Y-18134829D01*
X8908277Y-18134829D02*
X8898753Y-18153877D01*
X8898753Y-18153877D02*
X8889229Y-18163400D01*
X8889229Y-18163400D02*
X8870182Y-18172924D01*
X8870182Y-18172924D02*
X8851134Y-18172924D01*
X8851134Y-18172924D02*
X8832087Y-18163400D01*
X8832087Y-18163400D02*
X8822563Y-18153877D01*
X8822563Y-18153877D02*
X8813039Y-18134829D01*
X8813039Y-18134829D02*
X8803515Y-18096734D01*
X8803515Y-18096734D02*
X8803515Y-18049115D01*
X8803515Y-18049115D02*
X8813039Y-18011019D01*
X8813039Y-18011019D02*
X8822563Y-17991972D01*
X8822563Y-17991972D02*
X8832087Y-17982448D01*
X8832087Y-17982448D02*
X8851134Y-17972924D01*
X9003515Y-18153877D02*
X9013039Y-18163400D01*
X9013039Y-18163400D02*
X9003515Y-18172924D01*
X9003515Y-18172924D02*
X8993991Y-18163400D01*
X8993991Y-18163400D02*
X9003515Y-18153877D01*
X9003515Y-18153877D02*
X9003515Y-18172924D01*
X9203515Y-18172924D02*
X9089229Y-18172924D01*
X9146372Y-18172924D02*
X9146372Y-17972924D01*
X9146372Y-17972924D02*
X9127325Y-18001496D01*
X9127325Y-18001496D02*
X9108277Y-18020543D01*
X9108277Y-18020543D02*
X9089229Y-18030067D01*
X9279706Y-17991972D02*
X9289229Y-17982448D01*
X9289229Y-17982448D02*
X9308277Y-17972924D01*
X9308277Y-17972924D02*
X9355896Y-17972924D01*
X9355896Y-17972924D02*
X9374944Y-17982448D01*
X9374944Y-17982448D02*
X9384468Y-17991972D01*
X9384468Y-17991972D02*
X9393991Y-18011019D01*
X9393991Y-18011019D02*
X9393991Y-18030067D01*
X9393991Y-18030067D02*
X9384468Y-18058638D01*
X9384468Y-18058638D02*
X9270182Y-18172924D01*
X9270182Y-18172924D02*
X9393991Y-18172924D01*
X9508277Y-18058638D02*
X9489229Y-18049115D01*
X9489229Y-18049115D02*
X9479706Y-18039591D01*
X9479706Y-18039591D02*
X9470182Y-18020543D01*
X9470182Y-18020543D02*
X9470182Y-18011019D01*
X9470182Y-18011019D02*
X9479706Y-17991972D01*
X9479706Y-17991972D02*
X9489229Y-17982448D01*
X9489229Y-17982448D02*
X9508277Y-17972924D01*
X9508277Y-17972924D02*
X9546372Y-17972924D01*
X9546372Y-17972924D02*
X9565420Y-17982448D01*
X9565420Y-17982448D02*
X9574944Y-17991972D01*
X9574944Y-17991972D02*
X9584468Y-18011019D01*
X9584468Y-18011019D02*
X9584468Y-18020543D01*
X9584468Y-18020543D02*
X9574944Y-18039591D01*
X9574944Y-18039591D02*
X9565420Y-18049115D01*
X9565420Y-18049115D02*
X9546372Y-18058638D01*
X9546372Y-18058638D02*
X9508277Y-18058638D01*
X9508277Y-18058638D02*
X9489229Y-18068162D01*
X9489229Y-18068162D02*
X9479706Y-18077686D01*
X9479706Y-18077686D02*
X9470182Y-18096734D01*
X9470182Y-18096734D02*
X9470182Y-18134829D01*
X9470182Y-18134829D02*
X9479706Y-18153877D01*
X9479706Y-18153877D02*
X9489229Y-18163400D01*
X9489229Y-18163400D02*
X9508277Y-18172924D01*
X9508277Y-18172924D02*
X9546372Y-18172924D01*
X9546372Y-18172924D02*
X9565420Y-18163400D01*
X9565420Y-18163400D02*
X9574944Y-18153877D01*
X9574944Y-18153877D02*
X9584468Y-18134829D01*
X9584468Y-18134829D02*
X9584468Y-18096734D01*
X9584468Y-18096734D02*
X9574944Y-18077686D01*
X9574944Y-18077686D02*
X9565420Y-18068162D01*
X9565420Y-18068162D02*
X9546372Y-18058638D01*
X9708277Y-17972924D02*
X9727325Y-17972924D01*
X9727325Y-17972924D02*
X9746372Y-17982448D01*
X9746372Y-17982448D02*
X9755896Y-17991972D01*
X9755896Y-17991972D02*
X9765420Y-18011019D01*
X9765420Y-18011019D02*
X9774944Y-18049115D01*
X9774944Y-18049115D02*
X9774944Y-18096734D01*
X9774944Y-18096734D02*
X9765420Y-18134829D01*
X9765420Y-18134829D02*
X9755896Y-18153877D01*
X9755896Y-18153877D02*
X9746372Y-18163400D01*
X9746372Y-18163400D02*
X9727325Y-18172924D01*
X9727325Y-18172924D02*
X9708277Y-18172924D01*
X9708277Y-18172924D02*
X9689229Y-18163400D01*
X9689229Y-18163400D02*
X9679706Y-18153877D01*
X9679706Y-18153877D02*
X9670182Y-18134829D01*
X9670182Y-18134829D02*
X9660658Y-18096734D01*
X9660658Y-18096734D02*
X9660658Y-18049115D01*
X9660658Y-18049115D02*
X9670182Y-18011019D01*
X9670182Y-18011019D02*
X9679706Y-17991972D01*
X9679706Y-17991972D02*
X9689229Y-17982448D01*
X9689229Y-17982448D02*
X9708277Y-17972924D01*
X9851134Y-17972924D02*
X9851134Y-18011019D01*
X9927325Y-17972924D02*
X9927325Y-18011019D01*
X10222563Y-18249115D02*
X10213039Y-18239591D01*
X10213039Y-18239591D02*
X10193991Y-18211019D01*
X10193991Y-18211019D02*
X10184468Y-18191972D01*
X10184468Y-18191972D02*
X10174944Y-18163400D01*
X10174944Y-18163400D02*
X10165420Y-18115781D01*
X10165420Y-18115781D02*
X10165420Y-18077686D01*
X10165420Y-18077686D02*
X10174944Y-18030067D01*
X10174944Y-18030067D02*
X10184468Y-18001496D01*
X10184468Y-18001496D02*
X10193991Y-17982448D01*
X10193991Y-17982448D02*
X10213039Y-17953877D01*
X10213039Y-17953877D02*
X10222563Y-17944353D01*
X10289230Y-17991972D02*
X10298753Y-17982448D01*
X10298753Y-17982448D02*
X10317801Y-17972924D01*
X10317801Y-17972924D02*
X10365420Y-17972924D01*
X10365420Y-17972924D02*
X10384468Y-17982448D01*
X10384468Y-17982448D02*
X10393991Y-17991972D01*
X10393991Y-17991972D02*
X10403515Y-18011019D01*
X10403515Y-18011019D02*
X10403515Y-18030067D01*
X10403515Y-18030067D02*
X10393991Y-18058638D01*
X10393991Y-18058638D02*
X10279706Y-18172924D01*
X10279706Y-18172924D02*
X10403515Y-18172924D01*
X10641611Y-18172924D02*
X10641611Y-17972924D01*
X10727325Y-18172924D02*
X10727325Y-18068162D01*
X10727325Y-18068162D02*
X10717801Y-18049115D01*
X10717801Y-18049115D02*
X10698753Y-18039591D01*
X10698753Y-18039591D02*
X10670182Y-18039591D01*
X10670182Y-18039591D02*
X10651134Y-18049115D01*
X10651134Y-18049115D02*
X10641611Y-18058638D01*
X10851134Y-18172924D02*
X10832087Y-18163400D01*
X10832087Y-18163400D02*
X10822563Y-18153877D01*
X10822563Y-18153877D02*
X10813039Y-18134829D01*
X10813039Y-18134829D02*
X10813039Y-18077686D01*
X10813039Y-18077686D02*
X10822563Y-18058638D01*
X10822563Y-18058638D02*
X10832087Y-18049115D01*
X10832087Y-18049115D02*
X10851134Y-18039591D01*
X10851134Y-18039591D02*
X10879706Y-18039591D01*
X10879706Y-18039591D02*
X10898753Y-18049115D01*
X10898753Y-18049115D02*
X10908277Y-18058638D01*
X10908277Y-18058638D02*
X10917801Y-18077686D01*
X10917801Y-18077686D02*
X10917801Y-18134829D01*
X10917801Y-18134829D02*
X10908277Y-18153877D01*
X10908277Y-18153877D02*
X10898753Y-18163400D01*
X10898753Y-18163400D02*
X10879706Y-18172924D01*
X10879706Y-18172924D02*
X10851134Y-18172924D01*
X11032087Y-18172924D02*
X11013039Y-18163400D01*
X11013039Y-18163400D02*
X11003515Y-18144353D01*
X11003515Y-18144353D02*
X11003515Y-17972924D01*
X11184468Y-18163400D02*
X11165420Y-18172924D01*
X11165420Y-18172924D02*
X11127325Y-18172924D01*
X11127325Y-18172924D02*
X11108277Y-18163400D01*
X11108277Y-18163400D02*
X11098753Y-18144353D01*
X11098753Y-18144353D02*
X11098753Y-18068162D01*
X11098753Y-18068162D02*
X11108277Y-18049115D01*
X11108277Y-18049115D02*
X11127325Y-18039591D01*
X11127325Y-18039591D02*
X11165420Y-18039591D01*
X11165420Y-18039591D02*
X11184468Y-18049115D01*
X11184468Y-18049115D02*
X11193991Y-18068162D01*
X11193991Y-18068162D02*
X11193991Y-18087210D01*
X11193991Y-18087210D02*
X11098753Y-18106258D01*
X11270182Y-18163400D02*
X11289230Y-18172924D01*
X11289230Y-18172924D02*
X11327325Y-18172924D01*
X11327325Y-18172924D02*
X11346372Y-18163400D01*
X11346372Y-18163400D02*
X11355896Y-18144353D01*
X11355896Y-18144353D02*
X11355896Y-18134829D01*
X11355896Y-18134829D02*
X11346372Y-18115781D01*
X11346372Y-18115781D02*
X11327325Y-18106258D01*
X11327325Y-18106258D02*
X11298753Y-18106258D01*
X11298753Y-18106258D02*
X11279706Y-18096734D01*
X11279706Y-18096734D02*
X11270182Y-18077686D01*
X11270182Y-18077686D02*
X11270182Y-18068162D01*
X11270182Y-18068162D02*
X11279706Y-18049115D01*
X11279706Y-18049115D02*
X11298753Y-18039591D01*
X11298753Y-18039591D02*
X11327325Y-18039591D01*
X11327325Y-18039591D02*
X11346372Y-18049115D01*
X11422563Y-18249115D02*
X11432087Y-18239591D01*
X11432087Y-18239591D02*
X11451134Y-18211019D01*
X11451134Y-18211019D02*
X11460658Y-18191972D01*
X11460658Y-18191972D02*
X11470182Y-18163400D01*
X11470182Y-18163400D02*
X11479706Y-18115781D01*
X11479706Y-18115781D02*
X11479706Y-18077686D01*
X11479706Y-18077686D02*
X11470182Y-18030067D01*
X11470182Y-18030067D02*
X11460658Y-18001496D01*
X11460658Y-18001496D02*
X11451134Y-17982448D01*
X11451134Y-17982448D02*
X11432087Y-17953877D01*
X11432087Y-17953877D02*
X11422563Y-17944353D01*
X11784468Y-18249115D02*
X11774944Y-18239591D01*
X11774944Y-18239591D02*
X11755896Y-18211019D01*
X11755896Y-18211019D02*
X11746372Y-18191972D01*
X11746372Y-18191972D02*
X11736849Y-18163400D01*
X11736849Y-18163400D02*
X11727325Y-18115781D01*
X11727325Y-18115781D02*
X11727325Y-18077686D01*
X11727325Y-18077686D02*
X11736849Y-18030067D01*
X11736849Y-18030067D02*
X11746372Y-18001496D01*
X11746372Y-18001496D02*
X11755896Y-17982448D01*
X11755896Y-17982448D02*
X11774944Y-17953877D01*
X11774944Y-17953877D02*
X11784468Y-17944353D01*
X11860658Y-18039591D02*
X11860658Y-18172924D01*
X11860658Y-18058638D02*
X11870182Y-18049115D01*
X11870182Y-18049115D02*
X11889230Y-18039591D01*
X11889230Y-18039591D02*
X11917801Y-18039591D01*
X11917801Y-18039591D02*
X11936849Y-18049115D01*
X11936849Y-18049115D02*
X11946372Y-18068162D01*
X11946372Y-18068162D02*
X11946372Y-18172924D01*
X12070182Y-18172924D02*
X12051134Y-18163400D01*
X12051134Y-18163400D02*
X12041611Y-18153877D01*
X12041611Y-18153877D02*
X12032087Y-18134829D01*
X12032087Y-18134829D02*
X12032087Y-18077686D01*
X12032087Y-18077686D02*
X12041611Y-18058638D01*
X12041611Y-18058638D02*
X12051134Y-18049115D01*
X12051134Y-18049115D02*
X12070182Y-18039591D01*
X12070182Y-18039591D02*
X12098753Y-18039591D01*
X12098753Y-18039591D02*
X12117801Y-18049115D01*
X12117801Y-18049115D02*
X12127325Y-18058638D01*
X12127325Y-18058638D02*
X12136849Y-18077686D01*
X12136849Y-18077686D02*
X12136849Y-18134829D01*
X12136849Y-18134829D02*
X12127325Y-18153877D01*
X12127325Y-18153877D02*
X12117801Y-18163400D01*
X12117801Y-18163400D02*
X12098753Y-18172924D01*
X12098753Y-18172924D02*
X12070182Y-18172924D01*
X12193992Y-18039591D02*
X12270182Y-18039591D01*
X12222563Y-17972924D02*
X12222563Y-18144353D01*
X12222563Y-18144353D02*
X12232087Y-18163400D01*
X12232087Y-18163400D02*
X12251134Y-18172924D01*
X12251134Y-18172924D02*
X12270182Y-18172924D01*
X12489230Y-18039591D02*
X12489230Y-18239591D01*
X12489230Y-18049115D02*
X12508277Y-18039591D01*
X12508277Y-18039591D02*
X12546373Y-18039591D01*
X12546373Y-18039591D02*
X12565420Y-18049115D01*
X12565420Y-18049115D02*
X12574944Y-18058638D01*
X12574944Y-18058638D02*
X12584468Y-18077686D01*
X12584468Y-18077686D02*
X12584468Y-18134829D01*
X12584468Y-18134829D02*
X12574944Y-18153877D01*
X12574944Y-18153877D02*
X12565420Y-18163400D01*
X12565420Y-18163400D02*
X12546373Y-18172924D01*
X12546373Y-18172924D02*
X12508277Y-18172924D01*
X12508277Y-18172924D02*
X12489230Y-18163400D01*
X12698753Y-18172924D02*
X12679706Y-18163400D01*
X12679706Y-18163400D02*
X12670182Y-18144353D01*
X12670182Y-18144353D02*
X12670182Y-17972924D01*
X12860658Y-18172924D02*
X12860658Y-18068162D01*
X12860658Y-18068162D02*
X12851134Y-18049115D01*
X12851134Y-18049115D02*
X12832087Y-18039591D01*
X12832087Y-18039591D02*
X12793992Y-18039591D01*
X12793992Y-18039591D02*
X12774944Y-18049115D01*
X12860658Y-18163400D02*
X12841611Y-18172924D01*
X12841611Y-18172924D02*
X12793992Y-18172924D01*
X12793992Y-18172924D02*
X12774944Y-18163400D01*
X12774944Y-18163400D02*
X12765420Y-18144353D01*
X12765420Y-18144353D02*
X12765420Y-18125305D01*
X12765420Y-18125305D02*
X12774944Y-18106258D01*
X12774944Y-18106258D02*
X12793992Y-18096734D01*
X12793992Y-18096734D02*
X12841611Y-18096734D01*
X12841611Y-18096734D02*
X12860658Y-18087210D01*
X12927325Y-18039591D02*
X13003515Y-18039591D01*
X12955896Y-17972924D02*
X12955896Y-18144353D01*
X12955896Y-18144353D02*
X12965420Y-18163400D01*
X12965420Y-18163400D02*
X12984468Y-18172924D01*
X12984468Y-18172924D02*
X13003515Y-18172924D01*
X13146373Y-18163400D02*
X13127325Y-18172924D01*
X13127325Y-18172924D02*
X13089230Y-18172924D01*
X13089230Y-18172924D02*
X13070182Y-18163400D01*
X13070182Y-18163400D02*
X13060658Y-18144353D01*
X13060658Y-18144353D02*
X13060658Y-18068162D01*
X13060658Y-18068162D02*
X13070182Y-18049115D01*
X13070182Y-18049115D02*
X13089230Y-18039591D01*
X13089230Y-18039591D02*
X13127325Y-18039591D01*
X13127325Y-18039591D02*
X13146373Y-18049115D01*
X13146373Y-18049115D02*
X13155896Y-18068162D01*
X13155896Y-18068162D02*
X13155896Y-18087210D01*
X13155896Y-18087210D02*
X13060658Y-18106258D01*
X13327325Y-18172924D02*
X13327325Y-17972924D01*
X13327325Y-18163400D02*
X13308277Y-18172924D01*
X13308277Y-18172924D02*
X13270182Y-18172924D01*
X13270182Y-18172924D02*
X13251134Y-18163400D01*
X13251134Y-18163400D02*
X13241611Y-18153877D01*
X13241611Y-18153877D02*
X13232087Y-18134829D01*
X13232087Y-18134829D02*
X13232087Y-18077686D01*
X13232087Y-18077686D02*
X13241611Y-18058638D01*
X13241611Y-18058638D02*
X13251134Y-18049115D01*
X13251134Y-18049115D02*
X13270182Y-18039591D01*
X13270182Y-18039591D02*
X13308277Y-18039591D01*
X13308277Y-18039591D02*
X13327325Y-18049115D01*
X13403515Y-18249115D02*
X13413039Y-18239591D01*
X13413039Y-18239591D02*
X13432087Y-18211019D01*
X13432087Y-18211019D02*
X13441611Y-18191972D01*
X13441611Y-18191972D02*
X13451134Y-18163400D01*
X13451134Y-18163400D02*
X13460658Y-18115781D01*
X13460658Y-18115781D02*
X13460658Y-18077686D01*
X13460658Y-18077686D02*
X13451134Y-18030067D01*
X13451134Y-18030067D02*
X13441611Y-18001496D01*
X13441611Y-18001496D02*
X13432087Y-17982448D01*
X13432087Y-17982448D02*
X13413039Y-17953877D01*
X13413039Y-17953877D02*
X13403515Y-17944353D01*
X6618211Y-18472152D02*
X6618211Y-18330729D01*
X6476789Y-18330729D01*
X6476789Y-18472152D01*
X6618211Y-18472152D01*
X7003515Y-18292924D02*
X6908277Y-18292924D01*
X6908277Y-18292924D02*
X6898753Y-18388162D01*
X6898753Y-18388162D02*
X6908277Y-18378638D01*
X6908277Y-18378638D02*
X6927324Y-18369115D01*
X6927324Y-18369115D02*
X6974943Y-18369115D01*
X6974943Y-18369115D02*
X6993991Y-18378638D01*
X6993991Y-18378638D02*
X7003515Y-18388162D01*
X7003515Y-18388162D02*
X7013039Y-18407210D01*
X7013039Y-18407210D02*
X7013039Y-18454829D01*
X7013039Y-18454829D02*
X7003515Y-18473877D01*
X7003515Y-18473877D02*
X6993991Y-18483400D01*
X6993991Y-18483400D02*
X6974943Y-18492924D01*
X6974943Y-18492924D02*
X6927324Y-18492924D01*
X6927324Y-18492924D02*
X6908277Y-18483400D01*
X6908277Y-18483400D02*
X6898753Y-18473877D01*
X7098753Y-18473877D02*
X7108277Y-18483400D01*
X7108277Y-18483400D02*
X7098753Y-18492924D01*
X7098753Y-18492924D02*
X7089229Y-18483400D01*
X7089229Y-18483400D02*
X7098753Y-18473877D01*
X7098753Y-18473877D02*
X7098753Y-18492924D01*
X7298753Y-18492924D02*
X7184467Y-18492924D01*
X7241610Y-18492924D02*
X7241610Y-18292924D01*
X7241610Y-18292924D02*
X7222562Y-18321496D01*
X7222562Y-18321496D02*
X7203515Y-18340543D01*
X7203515Y-18340543D02*
X7184467Y-18350067D01*
X7422562Y-18292924D02*
X7441610Y-18292924D01*
X7441610Y-18292924D02*
X7460658Y-18302448D01*
X7460658Y-18302448D02*
X7470182Y-18311972D01*
X7470182Y-18311972D02*
X7479705Y-18331019D01*
X7479705Y-18331019D02*
X7489229Y-18369115D01*
X7489229Y-18369115D02*
X7489229Y-18416734D01*
X7489229Y-18416734D02*
X7479705Y-18454829D01*
X7479705Y-18454829D02*
X7470182Y-18473877D01*
X7470182Y-18473877D02*
X7460658Y-18483400D01*
X7460658Y-18483400D02*
X7441610Y-18492924D01*
X7441610Y-18492924D02*
X7422562Y-18492924D01*
X7422562Y-18492924D02*
X7403515Y-18483400D01*
X7403515Y-18483400D02*
X7393991Y-18473877D01*
X7393991Y-18473877D02*
X7384467Y-18454829D01*
X7384467Y-18454829D02*
X7374943Y-18416734D01*
X7374943Y-18416734D02*
X7374943Y-18369115D01*
X7374943Y-18369115D02*
X7384467Y-18331019D01*
X7384467Y-18331019D02*
X7393991Y-18311972D01*
X7393991Y-18311972D02*
X7403515Y-18302448D01*
X7403515Y-18302448D02*
X7422562Y-18292924D01*
X7613039Y-18292924D02*
X7632086Y-18292924D01*
X7632086Y-18292924D02*
X7651134Y-18302448D01*
X7651134Y-18302448D02*
X7660658Y-18311972D01*
X7660658Y-18311972D02*
X7670182Y-18331019D01*
X7670182Y-18331019D02*
X7679705Y-18369115D01*
X7679705Y-18369115D02*
X7679705Y-18416734D01*
X7679705Y-18416734D02*
X7670182Y-18454829D01*
X7670182Y-18454829D02*
X7660658Y-18473877D01*
X7660658Y-18473877D02*
X7651134Y-18483400D01*
X7651134Y-18483400D02*
X7632086Y-18492924D01*
X7632086Y-18492924D02*
X7613039Y-18492924D01*
X7613039Y-18492924D02*
X7593991Y-18483400D01*
X7593991Y-18483400D02*
X7584467Y-18473877D01*
X7584467Y-18473877D02*
X7574943Y-18454829D01*
X7574943Y-18454829D02*
X7565420Y-18416734D01*
X7565420Y-18416734D02*
X7565420Y-18369115D01*
X7565420Y-18369115D02*
X7574943Y-18331019D01*
X7574943Y-18331019D02*
X7584467Y-18311972D01*
X7584467Y-18311972D02*
X7593991Y-18302448D01*
X7593991Y-18302448D02*
X7613039Y-18292924D01*
X7765420Y-18492924D02*
X7765420Y-18359591D01*
X7765420Y-18378638D02*
X7774943Y-18369115D01*
X7774943Y-18369115D02*
X7793991Y-18359591D01*
X7793991Y-18359591D02*
X7822563Y-18359591D01*
X7822563Y-18359591D02*
X7841610Y-18369115D01*
X7841610Y-18369115D02*
X7851134Y-18388162D01*
X7851134Y-18388162D02*
X7851134Y-18492924D01*
X7851134Y-18388162D02*
X7860658Y-18369115D01*
X7860658Y-18369115D02*
X7879705Y-18359591D01*
X7879705Y-18359591D02*
X7908277Y-18359591D01*
X7908277Y-18359591D02*
X7927324Y-18369115D01*
X7927324Y-18369115D02*
X7936848Y-18388162D01*
X7936848Y-18388162D02*
X7936848Y-18492924D01*
X8032086Y-18492924D02*
X8032086Y-18359591D01*
X8032086Y-18378638D02*
X8041610Y-18369115D01*
X8041610Y-18369115D02*
X8060658Y-18359591D01*
X8060658Y-18359591D02*
X8089229Y-18359591D01*
X8089229Y-18359591D02*
X8108277Y-18369115D01*
X8108277Y-18369115D02*
X8117801Y-18388162D01*
X8117801Y-18388162D02*
X8117801Y-18492924D01*
X8117801Y-18388162D02*
X8127324Y-18369115D01*
X8127324Y-18369115D02*
X8146372Y-18359591D01*
X8146372Y-18359591D02*
X8174943Y-18359591D01*
X8174943Y-18359591D02*
X8193991Y-18369115D01*
X8193991Y-18369115D02*
X8203515Y-18388162D01*
X8203515Y-18388162D02*
X8203515Y-18492924D01*
X8593991Y-18283400D02*
X8422563Y-18540543D01*
X8851134Y-18292924D02*
X8870182Y-18292924D01*
X8870182Y-18292924D02*
X8889229Y-18302448D01*
X8889229Y-18302448D02*
X8898753Y-18311972D01*
X8898753Y-18311972D02*
X8908277Y-18331019D01*
X8908277Y-18331019D02*
X8917801Y-18369115D01*
X8917801Y-18369115D02*
X8917801Y-18416734D01*
X8917801Y-18416734D02*
X8908277Y-18454829D01*
X8908277Y-18454829D02*
X8898753Y-18473877D01*
X8898753Y-18473877D02*
X8889229Y-18483400D01*
X8889229Y-18483400D02*
X8870182Y-18492924D01*
X8870182Y-18492924D02*
X8851134Y-18492924D01*
X8851134Y-18492924D02*
X8832087Y-18483400D01*
X8832087Y-18483400D02*
X8822563Y-18473877D01*
X8822563Y-18473877D02*
X8813039Y-18454829D01*
X8813039Y-18454829D02*
X8803515Y-18416734D01*
X8803515Y-18416734D02*
X8803515Y-18369115D01*
X8803515Y-18369115D02*
X8813039Y-18331019D01*
X8813039Y-18331019D02*
X8822563Y-18311972D01*
X8822563Y-18311972D02*
X8832087Y-18302448D01*
X8832087Y-18302448D02*
X8851134Y-18292924D01*
X9003515Y-18473877D02*
X9013039Y-18483400D01*
X9013039Y-18483400D02*
X9003515Y-18492924D01*
X9003515Y-18492924D02*
X8993991Y-18483400D01*
X8993991Y-18483400D02*
X9003515Y-18473877D01*
X9003515Y-18473877D02*
X9003515Y-18492924D01*
X9089229Y-18311972D02*
X9098753Y-18302448D01*
X9098753Y-18302448D02*
X9117801Y-18292924D01*
X9117801Y-18292924D02*
X9165420Y-18292924D01*
X9165420Y-18292924D02*
X9184468Y-18302448D01*
X9184468Y-18302448D02*
X9193991Y-18311972D01*
X9193991Y-18311972D02*
X9203515Y-18331019D01*
X9203515Y-18331019D02*
X9203515Y-18350067D01*
X9203515Y-18350067D02*
X9193991Y-18378638D01*
X9193991Y-18378638D02*
X9079706Y-18492924D01*
X9079706Y-18492924D02*
X9203515Y-18492924D01*
X9327325Y-18292924D02*
X9346372Y-18292924D01*
X9346372Y-18292924D02*
X9365420Y-18302448D01*
X9365420Y-18302448D02*
X9374944Y-18311972D01*
X9374944Y-18311972D02*
X9384468Y-18331019D01*
X9384468Y-18331019D02*
X9393991Y-18369115D01*
X9393991Y-18369115D02*
X9393991Y-18416734D01*
X9393991Y-18416734D02*
X9384468Y-18454829D01*
X9384468Y-18454829D02*
X9374944Y-18473877D01*
X9374944Y-18473877D02*
X9365420Y-18483400D01*
X9365420Y-18483400D02*
X9346372Y-18492924D01*
X9346372Y-18492924D02*
X9327325Y-18492924D01*
X9327325Y-18492924D02*
X9308277Y-18483400D01*
X9308277Y-18483400D02*
X9298753Y-18473877D01*
X9298753Y-18473877D02*
X9289229Y-18454829D01*
X9289229Y-18454829D02*
X9279706Y-18416734D01*
X9279706Y-18416734D02*
X9279706Y-18369115D01*
X9279706Y-18369115D02*
X9289229Y-18331019D01*
X9289229Y-18331019D02*
X9298753Y-18311972D01*
X9298753Y-18311972D02*
X9308277Y-18302448D01*
X9308277Y-18302448D02*
X9327325Y-18292924D01*
X9517801Y-18292924D02*
X9536849Y-18292924D01*
X9536849Y-18292924D02*
X9555896Y-18302448D01*
X9555896Y-18302448D02*
X9565420Y-18311972D01*
X9565420Y-18311972D02*
X9574944Y-18331019D01*
X9574944Y-18331019D02*
X9584468Y-18369115D01*
X9584468Y-18369115D02*
X9584468Y-18416734D01*
X9584468Y-18416734D02*
X9574944Y-18454829D01*
X9574944Y-18454829D02*
X9565420Y-18473877D01*
X9565420Y-18473877D02*
X9555896Y-18483400D01*
X9555896Y-18483400D02*
X9536849Y-18492924D01*
X9536849Y-18492924D02*
X9517801Y-18492924D01*
X9517801Y-18492924D02*
X9498753Y-18483400D01*
X9498753Y-18483400D02*
X9489229Y-18473877D01*
X9489229Y-18473877D02*
X9479706Y-18454829D01*
X9479706Y-18454829D02*
X9470182Y-18416734D01*
X9470182Y-18416734D02*
X9470182Y-18369115D01*
X9470182Y-18369115D02*
X9479706Y-18331019D01*
X9479706Y-18331019D02*
X9489229Y-18311972D01*
X9489229Y-18311972D02*
X9498753Y-18302448D01*
X9498753Y-18302448D02*
X9517801Y-18292924D01*
X9698753Y-18378638D02*
X9679706Y-18369115D01*
X9679706Y-18369115D02*
X9670182Y-18359591D01*
X9670182Y-18359591D02*
X9660658Y-18340543D01*
X9660658Y-18340543D02*
X9660658Y-18331019D01*
X9660658Y-18331019D02*
X9670182Y-18311972D01*
X9670182Y-18311972D02*
X9679706Y-18302448D01*
X9679706Y-18302448D02*
X9698753Y-18292924D01*
X9698753Y-18292924D02*
X9736849Y-18292924D01*
X9736849Y-18292924D02*
X9755896Y-18302448D01*
X9755896Y-18302448D02*
X9765420Y-18311972D01*
X9765420Y-18311972D02*
X9774944Y-18331019D01*
X9774944Y-18331019D02*
X9774944Y-18340543D01*
X9774944Y-18340543D02*
X9765420Y-18359591D01*
X9765420Y-18359591D02*
X9755896Y-18369115D01*
X9755896Y-18369115D02*
X9736849Y-18378638D01*
X9736849Y-18378638D02*
X9698753Y-18378638D01*
X9698753Y-18378638D02*
X9679706Y-18388162D01*
X9679706Y-18388162D02*
X9670182Y-18397686D01*
X9670182Y-18397686D02*
X9660658Y-18416734D01*
X9660658Y-18416734D02*
X9660658Y-18454829D01*
X9660658Y-18454829D02*
X9670182Y-18473877D01*
X9670182Y-18473877D02*
X9679706Y-18483400D01*
X9679706Y-18483400D02*
X9698753Y-18492924D01*
X9698753Y-18492924D02*
X9736849Y-18492924D01*
X9736849Y-18492924D02*
X9755896Y-18483400D01*
X9755896Y-18483400D02*
X9765420Y-18473877D01*
X9765420Y-18473877D02*
X9774944Y-18454829D01*
X9774944Y-18454829D02*
X9774944Y-18416734D01*
X9774944Y-18416734D02*
X9765420Y-18397686D01*
X9765420Y-18397686D02*
X9755896Y-18388162D01*
X9755896Y-18388162D02*
X9736849Y-18378638D01*
X9851134Y-18292924D02*
X9851134Y-18331019D01*
X9927325Y-18292924D02*
X9927325Y-18331019D01*
X10222563Y-18569115D02*
X10213039Y-18559591D01*
X10213039Y-18559591D02*
X10193991Y-18531019D01*
X10193991Y-18531019D02*
X10184468Y-18511972D01*
X10184468Y-18511972D02*
X10174944Y-18483400D01*
X10174944Y-18483400D02*
X10165420Y-18435781D01*
X10165420Y-18435781D02*
X10165420Y-18397686D01*
X10165420Y-18397686D02*
X10174944Y-18350067D01*
X10174944Y-18350067D02*
X10184468Y-18321496D01*
X10184468Y-18321496D02*
X10193991Y-18302448D01*
X10193991Y-18302448D02*
X10213039Y-18273877D01*
X10213039Y-18273877D02*
X10222563Y-18264353D01*
X10393991Y-18292924D02*
X10298753Y-18292924D01*
X10298753Y-18292924D02*
X10289230Y-18388162D01*
X10289230Y-18388162D02*
X10298753Y-18378638D01*
X10298753Y-18378638D02*
X10317801Y-18369115D01*
X10317801Y-18369115D02*
X10365420Y-18369115D01*
X10365420Y-18369115D02*
X10384468Y-18378638D01*
X10384468Y-18378638D02*
X10393991Y-18388162D01*
X10393991Y-18388162D02*
X10403515Y-18407210D01*
X10403515Y-18407210D02*
X10403515Y-18454829D01*
X10403515Y-18454829D02*
X10393991Y-18473877D01*
X10393991Y-18473877D02*
X10384468Y-18483400D01*
X10384468Y-18483400D02*
X10365420Y-18492924D01*
X10365420Y-18492924D02*
X10317801Y-18492924D01*
X10317801Y-18492924D02*
X10298753Y-18483400D01*
X10298753Y-18483400D02*
X10289230Y-18473877D01*
X10574944Y-18292924D02*
X10536849Y-18292924D01*
X10536849Y-18292924D02*
X10517801Y-18302448D01*
X10517801Y-18302448D02*
X10508277Y-18311972D01*
X10508277Y-18311972D02*
X10489230Y-18340543D01*
X10489230Y-18340543D02*
X10479706Y-18378638D01*
X10479706Y-18378638D02*
X10479706Y-18454829D01*
X10479706Y-18454829D02*
X10489230Y-18473877D01*
X10489230Y-18473877D02*
X10498753Y-18483400D01*
X10498753Y-18483400D02*
X10517801Y-18492924D01*
X10517801Y-18492924D02*
X10555896Y-18492924D01*
X10555896Y-18492924D02*
X10574944Y-18483400D01*
X10574944Y-18483400D02*
X10584468Y-18473877D01*
X10584468Y-18473877D02*
X10593991Y-18454829D01*
X10593991Y-18454829D02*
X10593991Y-18407210D01*
X10593991Y-18407210D02*
X10584468Y-18388162D01*
X10584468Y-18388162D02*
X10574944Y-18378638D01*
X10574944Y-18378638D02*
X10555896Y-18369115D01*
X10555896Y-18369115D02*
X10517801Y-18369115D01*
X10517801Y-18369115D02*
X10498753Y-18378638D01*
X10498753Y-18378638D02*
X10489230Y-18388162D01*
X10489230Y-18388162D02*
X10479706Y-18407210D01*
X10832087Y-18492924D02*
X10832087Y-18292924D01*
X10917801Y-18492924D02*
X10917801Y-18388162D01*
X10917801Y-18388162D02*
X10908277Y-18369115D01*
X10908277Y-18369115D02*
X10889230Y-18359591D01*
X10889230Y-18359591D02*
X10860658Y-18359591D01*
X10860658Y-18359591D02*
X10841611Y-18369115D01*
X10841611Y-18369115D02*
X10832087Y-18378638D01*
X11041611Y-18492924D02*
X11022563Y-18483400D01*
X11022563Y-18483400D02*
X11013039Y-18473877D01*
X11013039Y-18473877D02*
X11003515Y-18454829D01*
X11003515Y-18454829D02*
X11003515Y-18397686D01*
X11003515Y-18397686D02*
X11013039Y-18378638D01*
X11013039Y-18378638D02*
X11022563Y-18369115D01*
X11022563Y-18369115D02*
X11041611Y-18359591D01*
X11041611Y-18359591D02*
X11070182Y-18359591D01*
X11070182Y-18359591D02*
X11089230Y-18369115D01*
X11089230Y-18369115D02*
X11098753Y-18378638D01*
X11098753Y-18378638D02*
X11108277Y-18397686D01*
X11108277Y-18397686D02*
X11108277Y-18454829D01*
X11108277Y-18454829D02*
X11098753Y-18473877D01*
X11098753Y-18473877D02*
X11089230Y-18483400D01*
X11089230Y-18483400D02*
X11070182Y-18492924D01*
X11070182Y-18492924D02*
X11041611Y-18492924D01*
X11222563Y-18492924D02*
X11203515Y-18483400D01*
X11203515Y-18483400D02*
X11193991Y-18464353D01*
X11193991Y-18464353D02*
X11193991Y-18292924D01*
X11374944Y-18483400D02*
X11355896Y-18492924D01*
X11355896Y-18492924D02*
X11317801Y-18492924D01*
X11317801Y-18492924D02*
X11298753Y-18483400D01*
X11298753Y-18483400D02*
X11289230Y-18464353D01*
X11289230Y-18464353D02*
X11289230Y-18388162D01*
X11289230Y-18388162D02*
X11298753Y-18369115D01*
X11298753Y-18369115D02*
X11317801Y-18359591D01*
X11317801Y-18359591D02*
X11355896Y-18359591D01*
X11355896Y-18359591D02*
X11374944Y-18369115D01*
X11374944Y-18369115D02*
X11384468Y-18388162D01*
X11384468Y-18388162D02*
X11384468Y-18407210D01*
X11384468Y-18407210D02*
X11289230Y-18426258D01*
X11460658Y-18483400D02*
X11479706Y-18492924D01*
X11479706Y-18492924D02*
X11517801Y-18492924D01*
X11517801Y-18492924D02*
X11536849Y-18483400D01*
X11536849Y-18483400D02*
X11546372Y-18464353D01*
X11546372Y-18464353D02*
X11546372Y-18454829D01*
X11546372Y-18454829D02*
X11536849Y-18435781D01*
X11536849Y-18435781D02*
X11517801Y-18426258D01*
X11517801Y-18426258D02*
X11489230Y-18426258D01*
X11489230Y-18426258D02*
X11470182Y-18416734D01*
X11470182Y-18416734D02*
X11460658Y-18397686D01*
X11460658Y-18397686D02*
X11460658Y-18388162D01*
X11460658Y-18388162D02*
X11470182Y-18369115D01*
X11470182Y-18369115D02*
X11489230Y-18359591D01*
X11489230Y-18359591D02*
X11517801Y-18359591D01*
X11517801Y-18359591D02*
X11536849Y-18369115D01*
X11613039Y-18569115D02*
X11622563Y-18559591D01*
X11622563Y-18559591D02*
X11641611Y-18531019D01*
X11641611Y-18531019D02*
X11651134Y-18511972D01*
X11651134Y-18511972D02*
X11660658Y-18483400D01*
X11660658Y-18483400D02*
X11670182Y-18435781D01*
X11670182Y-18435781D02*
X11670182Y-18397686D01*
X11670182Y-18397686D02*
X11660658Y-18350067D01*
X11660658Y-18350067D02*
X11651134Y-18321496D01*
X11651134Y-18321496D02*
X11641611Y-18302448D01*
X11641611Y-18302448D02*
X11622563Y-18273877D01*
X11622563Y-18273877D02*
X11613039Y-18264353D01*
X11974944Y-18569115D02*
X11965420Y-18559591D01*
X11965420Y-18559591D02*
X11946372Y-18531019D01*
X11946372Y-18531019D02*
X11936849Y-18511972D01*
X11936849Y-18511972D02*
X11927325Y-18483400D01*
X11927325Y-18483400D02*
X11917801Y-18435781D01*
X11917801Y-18435781D02*
X11917801Y-18397686D01*
X11917801Y-18397686D02*
X11927325Y-18350067D01*
X11927325Y-18350067D02*
X11936849Y-18321496D01*
X11936849Y-18321496D02*
X11946372Y-18302448D01*
X11946372Y-18302448D02*
X11965420Y-18273877D01*
X11965420Y-18273877D02*
X11974944Y-18264353D01*
X12051134Y-18359591D02*
X12051134Y-18492924D01*
X12051134Y-18378638D02*
X12060658Y-18369115D01*
X12060658Y-18369115D02*
X12079706Y-18359591D01*
X12079706Y-18359591D02*
X12108277Y-18359591D01*
X12108277Y-18359591D02*
X12127325Y-18369115D01*
X12127325Y-18369115D02*
X12136849Y-18388162D01*
X12136849Y-18388162D02*
X12136849Y-18492924D01*
X12260658Y-18492924D02*
X12241611Y-18483400D01*
X12241611Y-18483400D02*
X12232087Y-18473877D01*
X12232087Y-18473877D02*
X12222563Y-18454829D01*
X12222563Y-18454829D02*
X12222563Y-18397686D01*
X12222563Y-18397686D02*
X12232087Y-18378638D01*
X12232087Y-18378638D02*
X12241611Y-18369115D01*
X12241611Y-18369115D02*
X12260658Y-18359591D01*
X12260658Y-18359591D02*
X12289230Y-18359591D01*
X12289230Y-18359591D02*
X12308277Y-18369115D01*
X12308277Y-18369115D02*
X12317801Y-18378638D01*
X12317801Y-18378638D02*
X12327325Y-18397686D01*
X12327325Y-18397686D02*
X12327325Y-18454829D01*
X12327325Y-18454829D02*
X12317801Y-18473877D01*
X12317801Y-18473877D02*
X12308277Y-18483400D01*
X12308277Y-18483400D02*
X12289230Y-18492924D01*
X12289230Y-18492924D02*
X12260658Y-18492924D01*
X12384468Y-18359591D02*
X12460658Y-18359591D01*
X12413039Y-18292924D02*
X12413039Y-18464353D01*
X12413039Y-18464353D02*
X12422563Y-18483400D01*
X12422563Y-18483400D02*
X12441611Y-18492924D01*
X12441611Y-18492924D02*
X12460658Y-18492924D01*
X12679706Y-18359591D02*
X12679706Y-18559591D01*
X12679706Y-18369115D02*
X12698753Y-18359591D01*
X12698753Y-18359591D02*
X12736849Y-18359591D01*
X12736849Y-18359591D02*
X12755896Y-18369115D01*
X12755896Y-18369115D02*
X12765420Y-18378638D01*
X12765420Y-18378638D02*
X12774944Y-18397686D01*
X12774944Y-18397686D02*
X12774944Y-18454829D01*
X12774944Y-18454829D02*
X12765420Y-18473877D01*
X12765420Y-18473877D02*
X12755896Y-18483400D01*
X12755896Y-18483400D02*
X12736849Y-18492924D01*
X12736849Y-18492924D02*
X12698753Y-18492924D01*
X12698753Y-18492924D02*
X12679706Y-18483400D01*
X12889230Y-18492924D02*
X12870182Y-18483400D01*
X12870182Y-18483400D02*
X12860658Y-18464353D01*
X12860658Y-18464353D02*
X12860658Y-18292924D01*
X13051134Y-18492924D02*
X13051134Y-18388162D01*
X13051134Y-18388162D02*
X13041611Y-18369115D01*
X13041611Y-18369115D02*
X13022563Y-18359591D01*
X13022563Y-18359591D02*
X12984468Y-18359591D01*
X12984468Y-18359591D02*
X12965420Y-18369115D01*
X13051134Y-18483400D02*
X13032087Y-18492924D01*
X13032087Y-18492924D02*
X12984468Y-18492924D01*
X12984468Y-18492924D02*
X12965420Y-18483400D01*
X12965420Y-18483400D02*
X12955896Y-18464353D01*
X12955896Y-18464353D02*
X12955896Y-18445305D01*
X12955896Y-18445305D02*
X12965420Y-18426258D01*
X12965420Y-18426258D02*
X12984468Y-18416734D01*
X12984468Y-18416734D02*
X13032087Y-18416734D01*
X13032087Y-18416734D02*
X13051134Y-18407210D01*
X13117801Y-18359591D02*
X13193992Y-18359591D01*
X13146373Y-18292924D02*
X13146373Y-18464353D01*
X13146373Y-18464353D02*
X13155896Y-18483400D01*
X13155896Y-18483400D02*
X13174944Y-18492924D01*
X13174944Y-18492924D02*
X13193992Y-18492924D01*
X13336849Y-18483400D02*
X13317801Y-18492924D01*
X13317801Y-18492924D02*
X13279706Y-18492924D01*
X13279706Y-18492924D02*
X13260658Y-18483400D01*
X13260658Y-18483400D02*
X13251134Y-18464353D01*
X13251134Y-18464353D02*
X13251134Y-18388162D01*
X13251134Y-18388162D02*
X13260658Y-18369115D01*
X13260658Y-18369115D02*
X13279706Y-18359591D01*
X13279706Y-18359591D02*
X13317801Y-18359591D01*
X13317801Y-18359591D02*
X13336849Y-18369115D01*
X13336849Y-18369115D02*
X13346373Y-18388162D01*
X13346373Y-18388162D02*
X13346373Y-18407210D01*
X13346373Y-18407210D02*
X13251134Y-18426258D01*
X13517801Y-18492924D02*
X13517801Y-18292924D01*
X13517801Y-18483400D02*
X13498754Y-18492924D01*
X13498754Y-18492924D02*
X13460658Y-18492924D01*
X13460658Y-18492924D02*
X13441611Y-18483400D01*
X13441611Y-18483400D02*
X13432087Y-18473877D01*
X13432087Y-18473877D02*
X13422563Y-18454829D01*
X13422563Y-18454829D02*
X13422563Y-18397686D01*
X13422563Y-18397686D02*
X13432087Y-18378638D01*
X13432087Y-18378638D02*
X13441611Y-18369115D01*
X13441611Y-18369115D02*
X13460658Y-18359591D01*
X13460658Y-18359591D02*
X13498754Y-18359591D01*
X13498754Y-18359591D02*
X13517801Y-18369115D01*
X13593992Y-18569115D02*
X13603515Y-18559591D01*
X13603515Y-18559591D02*
X13622563Y-18531019D01*
X13622563Y-18531019D02*
X13632087Y-18511972D01*
X13632087Y-18511972D02*
X13641611Y-18483400D01*
X13641611Y-18483400D02*
X13651134Y-18435781D01*
X13651134Y-18435781D02*
X13651134Y-18397686D01*
X13651134Y-18397686D02*
X13641611Y-18350067D01*
X13641611Y-18350067D02*
X13632087Y-18321496D01*
X13632087Y-18321496D02*
X13622563Y-18302448D01*
X13622563Y-18302448D02*
X13603515Y-18273877D01*
X13603515Y-18273877D02*
X13593992Y-18264353D01*
M02*
