M48
; DRILL file {KiCad 8.0.1} date 2024-04-28T15:41:51+0000
; FORMAT={-:-/ absolute / metric / decimal}
; #@! TF.CreationDate,2024-04-28T15:41:51+00:00
; #@! TF.GenerationSoftware,Kicad,Pcbnew,8.0.1
; #@! TF.FileFunction,NonPlated,1,2,NPTH
FMAT,2
METRIC
; #@! TA.AperFunction,NonPlated,NPTH,ComponentDrill
T1C3.000
; #@! TA.AperFunction,NonPlated,NPTH,ComponentDrill
T2C3.200
; #@! TA.AperFunction,NonPlated,NPTH,ComponentDrill
T3C3.250
; #@! TA.AperFunction,NonPlated,NPTH,ComponentDrill
T4C5.100
%
G90
G05
T1
X101.725Y-144.839
X104.316Y-151.427
X104.85Y-99.8
X104.85Y-109.2
X109.866Y-140.139
X111.85Y-98.75
X111.85Y-110.25
X114.275Y-145.677
X118.18Y-135.339
X120.77Y-141.927
X123.85Y-52.3
X123.85Y-61.7
X123.85Y-71.3
X123.85Y-80.7
X123.85Y-90.3
X123.85Y-99.7
X123.85Y-109.3
X123.85Y-118.7
X126.32Y-130.639
X130.73Y-136.177
X130.85Y-51.25
X130.85Y-62.75
X130.85Y-70.25
X130.85Y-81.75
X130.85Y-89.25
X130.85Y-100.75
X130.85Y-108.25
X130.85Y-119.75
X141.5Y-131.8
X142.55Y-124.8
X142.85Y-48.5
X142.85Y-57.9
X142.85Y-67.5
X142.85Y-76.9
X142.85Y-86.5
X142.85Y-95.9
X142.85Y-105.5
X142.85Y-114.9
X149.85Y-47.45
X149.85Y-58.95
X149.85Y-66.45
X149.85Y-77.95
X149.85Y-85.45
X149.85Y-96.95
X149.85Y-104.45
X149.85Y-115.95
X151.95Y-124.8
X153.0Y-131.8
X161.85Y-44.7
X161.85Y-54.1
X161.85Y-63.7
X161.85Y-73.1
X161.85Y-82.7
X161.85Y-92.1
X161.85Y-101.7
X161.85Y-111.1
X168.85Y-43.65
X168.85Y-55.15
X168.85Y-62.65
X168.85Y-74.15
X168.85Y-81.65
X168.85Y-93.15
X168.85Y-100.65
X168.85Y-112.15
X180.85Y-46.6
X180.85Y-56.0
X180.85Y-65.6
X180.85Y-75.0
X180.85Y-84.6
X180.85Y-94.0
X180.85Y-103.6
X180.85Y-113.0
X187.85Y-45.55
X187.85Y-57.05
X187.85Y-64.55
X187.85Y-76.05
X187.85Y-83.55
X187.85Y-95.05
X187.85Y-102.55
X187.85Y-114.05
X199.85Y-52.3
X199.85Y-61.7
X199.85Y-71.3
X199.85Y-80.7
X199.85Y-90.3
X199.85Y-99.7
X199.85Y-109.3
X199.85Y-118.7
X206.85Y-51.25
X206.85Y-62.75
X206.85Y-70.25
X206.85Y-81.75
X206.85Y-89.25
X206.85Y-100.75
X206.85Y-108.25
X206.85Y-119.75
X218.85Y-52.3
X218.85Y-61.7
X218.85Y-71.3
X218.85Y-80.7
X218.85Y-90.3
X218.85Y-99.7
X218.85Y-109.3
X218.85Y-118.7
X225.85Y-51.25
X225.85Y-62.75
X225.85Y-70.25
X225.85Y-81.75
X225.85Y-89.25
X225.85Y-100.75
X225.85Y-108.25
X225.85Y-119.75
T2
X69.55Y-47.5
X84.55Y-47.5
T3
X77.05Y-47.5
X77.05Y-47.5
T4
X107.996Y-146.3
X107.996Y-146.3
X109.25Y-104.5
X109.25Y-104.5
X124.45Y-136.8
X124.45Y-136.8
X128.25Y-57.0
X128.25Y-57.0
X128.25Y-76.0
X128.25Y-76.0
X128.25Y-95.0
X128.25Y-95.0
X128.25Y-114.0
X128.25Y-114.0
X147.25Y-53.2
X147.25Y-53.2
X147.25Y-72.2
X147.25Y-72.2
X147.25Y-91.2
X147.25Y-91.2
X147.25Y-110.2
X147.25Y-110.2
X147.25Y-129.2
X147.25Y-129.2
X166.25Y-49.4
X166.25Y-49.4
X166.25Y-68.4
X166.25Y-68.4
X166.25Y-87.4
X166.25Y-87.4
X166.25Y-106.4
X166.25Y-106.4
X185.25Y-51.3
X185.25Y-51.3
X185.25Y-70.3
X185.25Y-70.3
X185.25Y-89.3
X185.25Y-89.3
X185.25Y-108.3
X185.25Y-108.3
X204.25Y-57.0
X204.25Y-57.0
X204.25Y-76.0
X204.25Y-76.0
X204.25Y-95.0
X204.25Y-95.0
X204.25Y-114.0
X204.25Y-114.0
X223.25Y-57.0
X223.25Y-57.0
X223.25Y-76.0
X223.25Y-76.0
X223.25Y-95.0
X223.25Y-95.0
X223.25Y-114.0
X223.25Y-114.0
M30
