%TF.GenerationSoftware,KiCad,Pcbnew,8.0.1*%
%TF.CreationDate,2024-04-28T15:39:47+00:00*%
%TF.ProjectId,split_kb,73706c69-745f-46b6-922e-6b696361645f,rev?*%
%TF.SameCoordinates,Original*%
%TF.FileFunction,Profile,NP*%
%FSLAX46Y46*%
G04 Gerber Fmt 4.6, Leading zero omitted, Abs format (unit mm)*
G04 Created by KiCad (PCBNEW 8.0.1) date 2024-04-28 15:39:47*
%MOMM*%
%LPD*%
G01*
G04 APERTURE LIST*
%TA.AperFunction,Profile*%
%ADD10C,0.050000*%
%TD*%
G04 APERTURE END LIST*
D10*
X99750000Y-167200000D02*
X132050000Y-148200000D01*
X73150000Y-101650000D02*
G75*
G02*
X77900000Y-106400000I0J-4750000D01*
G01*
X132050000Y-148200000D02*
G75*
G02*
X143450000Y-145350000I11400000J-21375000D01*
G01*
X135850000Y-38000000D02*
X231800000Y-38000000D01*
X77900000Y-106400000D02*
X77900000Y-133950000D01*
X180500000Y-140600000D02*
X231800000Y-140600000D01*
X73150000Y-101650000D02*
G75*
G02*
X66500000Y-95000000I0J6650000D01*
G01*
X237500000Y-134900000D02*
G75*
G02*
X231800000Y-140600000I-5700000J0D01*
G01*
X94050000Y-153900000D02*
X80750000Y-140600000D01*
X169100000Y-143450000D02*
G75*
G02*
X161500000Y-145350000I-7600000J14250000D01*
G01*
X99750000Y-167200000D02*
G75*
G02*
X94050000Y-157700000I-2850000J4750000D01*
G01*
X122550000Y-36100000D02*
G75*
G02*
X133950000Y-36100000I5700000J0D01*
G01*
X143450000Y-145350000D02*
X161500000Y-145350000D01*
X80750000Y-140600000D02*
G75*
G02*
X77900010Y-133950000I6650000J6785700D01*
G01*
X135850000Y-38000000D02*
G75*
G02*
X133950000Y-36100000I0J1900000D01*
G01*
X122550000Y-36100000D02*
G75*
G02*
X120650000Y-38000000I-1900000J0D01*
G01*
X66500000Y-38000000D02*
X120650000Y-38000000D01*
X169100000Y-143450000D02*
G75*
G02*
X180500000Y-140600000I11400000J-21375000D01*
G01*
X94049999Y-153900001D02*
G75*
G02*
X94049999Y-157699999I-1899999J-1899999D01*
G01*
X66500000Y-95000000D02*
X66500000Y-38000000D01*
X231800000Y-38000000D02*
G75*
G02*
X237500000Y-43700000I0J-5700000D01*
G01*
X237500000Y-134900000D02*
X237500000Y-43700000D01*
M02*
