M48
; DRILL file {KiCad 8.0.1} date 2024-04-28T15:41:51+0000
; FORMAT={-:-/ absolute / metric / decimal}
; #@! TF.CreationDate,2024-04-28T15:41:51+00:00
; #@! TF.GenerationSoftware,Kicad,Pcbnew,8.0.1
; #@! TF.FileFunction,Plated,1,2,PTH
FMAT,2
METRIC
; #@! TA.AperFunction,Plated,PTH,ViaDrill
T1C0.300
; #@! TA.AperFunction,Plated,PTH,ComponentDrill
T2C0.500
; #@! TA.AperFunction,Plated,PTH,ComponentDrill
T3C0.700
; #@! TA.AperFunction,Plated,PTH,ComponentDrill
T4C0.800
; #@! TA.AperFunction,Plated,PTH,ComponentDrill
T5C0.813
; #@! TA.AperFunction,Plated,PTH,ComponentDrill
T6C0.900
; #@! TA.AperFunction,Plated,PTH,ComponentDrill
T7C1.000
; #@! TA.AperFunction,Plated,PTH,ComponentDrill
T8C3.000
%
G90
G05
T1
X72.73Y-58.9
X90.25Y-99.75
X90.25Y-105.45
X95.0Y-41.8
X95.0Y-52.25
X99.75Y-41.8
X99.75Y-138.7
X101.0Y-95.95
X105.45Y-39.9
X109.25Y-153.9
X114.0Y-127.3
X115.7Y-101.45
X120.0Y-55.1
X120.0Y-74.1
X120.0Y-93.1
X120.0Y-112.1
X125.4Y-144.4
X134.7Y-60.05
X134.7Y-78.85
X134.7Y-92.35
X134.9Y-112.1
X137.75Y-134.9
X139.0Y-51.3
X139.0Y-69.35
X139.0Y-88.35
X139.0Y-108.3
X145.35Y-120.95
X153.7Y-44.65
X153.7Y-64.6
X153.7Y-83.6
X153.9Y-100.7
X158.0Y-47.5
X158.0Y-66.5
X158.0Y-85.5
X158.0Y-104.5
X167.2Y-139.65
X172.7Y-71.25
X172.7Y-91.2
X172.7Y-109.25
X174.8Y-55.1
X177.0Y-50.35
X177.0Y-68.4
X177.0Y-87.4
X177.0Y-107.35
X191.7Y-73.15
X191.7Y-92.15
X191.7Y-111.15
X193.8Y-57.0
X196.0Y-55.1
X196.0Y-73.15
X196.0Y-92.15
X196.0Y-111.15
X210.7Y-78.85
X210.7Y-97.85
X210.7Y-116.85
X212.8Y-62.7
X215.0Y-55.1
X215.0Y-73.15
X215.0Y-92.15
X215.0Y-111.15
X224.2Y-125.4
X229.7Y-78.85
X229.7Y-97.85
X229.7Y-116.85
X231.8Y-58.9
T2
X70.9Y-95.0
X71.559Y-93.409
X71.559Y-96.591
X73.15Y-92.75
X73.15Y-97.25
X74.741Y-93.409
X74.741Y-96.591
X75.4Y-95.0
X94.65Y-162.45
X95.309Y-160.859
X95.309Y-164.041
X96.9Y-160.2
X96.9Y-164.7
X98.491Y-160.859
X98.491Y-164.041
X99.15Y-162.45
X126.0Y-36.1
X126.659Y-34.509
X126.659Y-37.691
X128.25Y-33.85
X128.25Y-38.35
X129.841Y-34.509
X129.841Y-37.691
X130.5Y-36.1
X228.6Y-133.95
X229.259Y-132.359
X229.259Y-135.541
X229.55Y-43.7
X230.209Y-42.109
X230.209Y-45.291
X230.85Y-131.7
X230.85Y-136.2
X231.8Y-41.45
X231.8Y-45.95
X232.441Y-132.359
X232.441Y-135.541
X233.1Y-133.95
X233.391Y-42.109
X233.391Y-45.291
X234.05Y-43.7
T3
X77.9Y-79.8
X77.9Y-84.88
X80.75Y-79.8
X80.75Y-84.88
X83.6Y-79.8
X83.6Y-84.88
X86.45Y-79.8
X86.45Y-84.88
T4
X84.54Y-111.15
X84.54Y-114.0
X84.54Y-119.7
X84.54Y-122.55
X84.54Y-125.4
X84.54Y-128.25
X84.54Y-133.95
X84.55Y-102.6
X84.55Y-105.45
X84.55Y-116.85
X84.55Y-131.1
X84.57Y-108.3
X92.16Y-111.15
X92.16Y-114.0
X92.16Y-119.7
X92.16Y-122.55
X92.16Y-125.4
X92.16Y-128.25
X92.16Y-133.95
X92.17Y-102.6
X92.17Y-105.45
X92.17Y-116.85
X92.17Y-131.1
X92.19Y-108.3
X161.5Y-127.3
X161.5Y-134.92
X164.35Y-127.31
X164.35Y-134.93
X167.2Y-127.3
X167.2Y-134.92
X170.05Y-127.31
X170.05Y-134.93
X172.9Y-127.31
X172.9Y-134.93
X175.75Y-127.31
X175.75Y-134.93
X178.6Y-127.3
X178.6Y-134.92
X181.45Y-127.31
X181.45Y-134.93
X184.3Y-127.31
X184.3Y-134.93
X187.15Y-127.31
X187.15Y-134.93
X190.0Y-127.31
X190.0Y-134.93
X192.85Y-127.32
X192.85Y-134.94
X195.7Y-127.3
X195.7Y-134.92
X198.55Y-127.31
X198.55Y-134.93
X201.4Y-127.31
X201.4Y-134.93
X204.25Y-127.3
X204.25Y-134.92
T5
X88.341Y-42.522
X88.341Y-45.062
X88.341Y-47.602
X88.341Y-50.142
X88.341Y-52.682
X88.341Y-55.222
X88.341Y-57.762
X88.341Y-60.302
X88.341Y-62.842
X88.341Y-65.382
X88.341Y-67.922
X88.341Y-70.462
X92.141Y-42.522
X92.141Y-45.062
X92.141Y-47.602
X92.141Y-50.142
X92.141Y-52.682
X92.141Y-55.222
X92.141Y-57.762
X92.141Y-60.302
X92.141Y-62.842
X92.141Y-65.382
X92.141Y-67.922
X92.141Y-70.462
X103.561Y-42.522
X103.561Y-45.062
X103.561Y-47.602
X103.561Y-50.142
X103.561Y-52.682
X103.561Y-55.222
X103.561Y-57.762
X103.561Y-60.302
X103.561Y-62.842
X103.561Y-65.382
X103.561Y-67.922
X103.561Y-70.462
X107.361Y-42.522
X107.361Y-45.062
X107.361Y-47.602
X107.361Y-50.142
X107.361Y-52.682
X107.361Y-55.222
X107.361Y-57.762
X107.361Y-60.302
X107.361Y-62.842
X107.361Y-65.382
X107.361Y-67.922
X107.361Y-70.462
T6
X71.46Y-53.85
X72.73Y-56.39
X74.0Y-53.85
X75.27Y-56.39
X78.83Y-56.39
X80.1Y-53.85
X81.37Y-56.39
X82.64Y-53.85
T7
X69.35Y-60.78
X69.35Y-63.32
X69.35Y-65.86
X69.35Y-68.4
X69.35Y-72.82
X69.35Y-75.36
X69.35Y-77.9
X69.35Y-80.44
T8
X73.15Y-95.0
X96.9Y-162.45
X128.25Y-36.1
X230.85Y-133.95
X231.8Y-43.7
M30
